<svg width="203" height="190" viewBox="0 0 203 190" fill="none" xmlns="http://www.w3.org/2000/svg">
<rect width="203" height="190" rx="30" fill="#34C9B0"/>
<path d="M103.173 106.588L98.1162 104.674C99.4704 101.099 101.772 97.2202 105.402 93.1875L109.429 96.8113C106.225 100.373 104.28 103.663 103.173 106.588Z" fill="white"/>
<path fill-rule="evenodd" clip-rule="evenodd" d="M79.1498 48.958C64.1781 48.958 53.25 64.233 53.25 80.7105C53.25 117.49 102 141.041 102 141.041C102 141.041 150.75 115.973 150.75 80.7105C150.75 64.2384 139.822 48.958 124.853 48.958C114.464 48.958 106.753 55.8128 102 65.5357C97.2415 55.8128 89.5362 48.958 79.1498 48.958ZM83.0417 97.597C83.0417 105.199 91.5512 107.626 97.7777 105.606C94.804 114.41 97.5665 121.271 100.026 123.925L103.999 120.241C103.013 119.18 100.749 114.787 102.62 108.265C105.889 114.324 120.958 115.087 120.958 103.661V73.333C113.153 79.9386 104.814 82.5495 97.951 84.6999C89.3331 87.3974 83.0417 89.3663 83.0417 97.597Z" fill="white"/>
</svg>
