<svg width="38" height="38" viewBox="0 0 38 38" fill="none" xmlns="http://www.w3.org/2000/svg">
<path d="M18.9997 23.75C20.6794 23.75 22.2903 23.0827 23.478 21.895C24.6657 20.7073 25.333 19.0963 25.333 17.4166V7.91665C25.333 6.23694 24.6657 4.62603 23.478 3.4383C22.2903 2.25057 20.6794 1.58331 18.9997 1.58331C17.32 1.58331 15.7091 2.25057 14.5213 3.4383C13.3336 4.62603 12.6663 6.23694 12.6663 7.91665V17.4166C12.6663 19.0963 13.3336 20.7073 14.5213 21.895C15.7091 23.0827 17.32 23.75 18.9997 23.75ZM15.833 7.91665C15.833 7.07679 16.1666 6.27134 16.7605 5.67747C17.3544 5.08361 18.1598 4.74998 18.9997 4.74998C19.8395 4.74998 20.645 5.08361 21.2388 5.67747C21.8327 6.27134 22.1663 7.07679 22.1663 7.91665V17.4166C22.1663 18.2565 21.8327 19.062 21.2388 19.6558C20.645 20.2497 19.8395 20.5833 18.9997 20.5833C18.1598 20.5833 17.3544 20.2497 16.7605 19.6558C16.1666 19.062 15.833 18.2565 15.833 17.4166V7.91665ZM31.6663 17.4166C31.6663 16.9967 31.4995 16.594 31.2026 16.2971C30.9057 16.0001 30.5029 15.8333 30.083 15.8333C29.6631 15.8333 29.2604 16.0001 28.9634 16.2971C28.6665 16.594 28.4997 16.9967 28.4997 17.4166C28.4997 19.9362 27.4988 22.3526 25.7172 24.1342C23.9356 25.9158 21.5192 26.9166 18.9997 26.9166C16.4801 26.9166 14.0638 25.9158 12.2822 24.1342C10.5006 22.3526 9.49967 19.9362 9.49967 17.4166C9.49967 16.9967 9.33286 16.594 9.03593 16.2971C8.73899 16.0001 8.33627 15.8333 7.91634 15.8333C7.49642 15.8333 7.09369 16.0001 6.79676 16.2971C6.49982 16.594 6.33301 16.9967 6.33301 17.4166C6.3358 20.4999 7.46307 23.4762 9.50347 25.7877C11.5439 28.0992 14.3573 29.5871 17.4163 29.9725V33.25H14.2497C13.8297 33.25 13.427 33.4168 13.1301 33.7137C12.8332 34.0107 12.6663 34.4134 12.6663 34.8333C12.6663 35.2532 12.8332 35.656 13.1301 35.9529C13.427 36.2498 13.8297 36.4166 14.2497 36.4166H23.7497C24.1696 36.4166 24.5723 36.2498 24.8693 35.9529C25.1662 35.656 25.333 35.2532 25.333 34.8333C25.333 34.4134 25.1662 34.0107 24.8693 33.7137C24.5723 33.4168 24.1696 33.25 23.7497 33.25H20.583V29.9725C23.642 29.5871 26.4555 28.0992 28.4959 25.7877C30.5363 23.4762 31.6635 20.4999 31.6663 17.4166Z" fill="#B1B1B1"/>
</svg>
