<svg width="28" height="28" viewBox="0 0 28 28" fill="none" xmlns="http://www.w3.org/2000/svg">
<path d="M22.75 24H5.25C4.41986 24.0001 3.62117 23.6824 3.01777 23.1123C2.41437 22.5422 2.052 21.7628 2.005 20.934L2 20.75V6.25C1.99993 5.67987 2.2163 5.13098 2.60537 4.71425C2.99444 4.29751 3.52721 4.04402 4.096 4.005L4.25 4H19.75C20.3201 3.99993 20.869 4.2163 21.2858 4.60537C21.7025 4.99444 21.956 5.52721 21.995 6.096L22 6.25V7H23.75C24.3201 6.99993 24.869 7.2163 25.2858 7.60537C25.7025 7.99444 25.956 8.52721 25.995 9.096L26 9.25V20.75C26.0001 21.5801 25.6824 22.3788 25.1123 22.9822C24.5422 23.5856 23.7628 23.948 22.934 23.995L22.75 24ZM5.25 22.5H22.75C23.1893 22.5 23.6126 22.3347 23.9357 22.037C24.2588 21.7392 24.4581 21.3309 24.494 20.893L24.5 20.75V9.25C24.5 9.06876 24.4344 8.89366 24.3152 8.75707C24.1961 8.62048 24.0316 8.53165 23.852 8.507L23.75 8.5H22V19.25C22 19.4312 21.9344 19.6063 21.8152 19.7429C21.6961 19.8795 21.5316 19.9684 21.352 19.993L21.25 20C21.0688 20 20.8937 19.9344 20.7571 19.8152C20.6205 19.6961 20.5316 19.5316 20.507 19.352L20.5 19.25V6.25C20.5 6.06876 20.4344 5.89366 20.3152 5.75707C20.1961 5.62048 20.0316 5.53165 19.852 5.507L19.75 5.5H4.25C4.06876 5.50001 3.89366 5.56564 3.75707 5.68477C3.62048 5.80389 3.53165 5.96845 3.507 6.148L3.5 6.25V20.75C3.50002 21.1892 3.66517 21.6123 3.96268 21.9354C4.26019 22.2585 4.6683 22.4579 5.106 22.494L5.25 22.5ZM10.246 13.004C10.936 13.004 11.496 13.564 11.496 14.254V17.75C11.496 18.44 10.936 19 10.246 19H6.75C6.06 19 5.5 18.44 5.5 17.75V14.254C5.5 13.564 6.06 13.004 6.75 13.004H10.246ZM14.25 17.5H17.746C17.936 17.5001 18.1189 17.5722 18.2578 17.702C18.3966 17.8317 18.4811 18.0093 18.494 18.1989C18.507 18.3885 18.4475 18.5759 18.3276 18.7233C18.2077 18.8707 18.0362 18.9671 17.848 18.993L17.746 19H14.25C14.06 18.9999 13.8771 18.9278 13.7382 18.798C13.5994 18.6683 13.5149 18.4907 13.502 18.3011C13.489 18.1115 13.5485 17.9241 13.6684 17.7767C13.7883 17.6293 13.9597 17.5329 14.148 17.507L14.25 17.5ZM9.997 14.504H7V17.5H9.997V14.504ZM14.25 13.004H17.746C17.936 13.0041 18.1189 13.0762 18.2578 13.206C18.3966 13.3357 18.4811 13.5133 18.494 13.7029C18.507 13.8925 18.4475 14.0799 18.3276 14.2273C18.2077 14.3747 18.0362 14.4711 17.848 14.497L17.746 14.504H14.25C14.0586 14.5059 13.8737 14.4347 13.7332 14.3047C13.5927 14.1748 13.5072 13.9961 13.4941 13.8051C13.4811 13.6142 13.5415 13.4255 13.6631 13.2777C13.7847 13.1298 13.9581 13.0341 14.148 13.01L14.25 13.004ZM6.246 8.497H17.746C17.936 8.49706 18.1189 8.56924 18.2578 8.69897C18.3966 8.8287 18.4811 9.0063 18.494 9.19588C18.507 9.38546 18.4475 9.57289 18.3276 9.7203C18.2077 9.86771 18.0362 9.9641 17.848 9.99L17.746 9.997H6.246C6.05606 9.99669 5.87332 9.92433 5.73466 9.79452C5.596 9.66471 5.51175 9.48713 5.49893 9.29762C5.48611 9.10812 5.54567 8.92081 5.66559 8.77351C5.7855 8.6262 5.95683 8.52989 6.145 8.504L6.246 8.497Z" fill="white"/>
</svg>
