<svg width="26" height="26" viewBox="0 0 26 26" fill="none" xmlns="http://www.w3.org/2000/svg">
<path d="M20.5833 20.1388C20.296 20.1388 20.0205 20.253 19.8173 20.4561C19.6141 20.6593 19.5 20.9349 19.5 21.2222V23.5622C19.5 23.634 19.4715 23.7029 19.4207 23.7537C19.3699 23.8045 19.301 23.833 19.2292 23.833H2.4375C2.36927 23.8332 2.30347 23.8077 2.25326 23.7615C2.20305 23.7153 2.17212 23.6518 2.16667 23.5838V5.16717C2.16667 5.09534 2.1952 5.02646 2.24599 4.97567C2.29678 4.92487 2.36567 4.89634 2.4375 4.89634H3.79167C4.07898 4.89634 4.35453 4.7822 4.5577 4.57904C4.76086 4.37588 4.875 4.10033 4.875 3.81301C4.875 3.52569 4.76086 3.25014 4.5577 3.04698C4.35453 2.84381 4.07898 2.72967 3.79167 2.72967H2.16667C1.59203 2.72967 1.04093 2.95795 0.634602 3.36428C0.228273 3.77061 0 4.32171 0 4.89634L0 23.833C0 24.4076 0.228273 24.9587 0.634602 25.3651C1.04093 25.7714 1.59203 25.9997 2.16667 25.9997H19.5C20.0746 25.9997 20.6257 25.7714 21.0321 25.3651C21.4384 24.9587 21.6667 24.4076 21.6667 23.833V21.2222C21.6667 20.9349 21.5525 20.6593 21.3494 20.4561C21.1462 20.253 20.8706 20.1388 20.5833 20.1388ZM17.875 4.87467H19.2292C19.301 4.87467 19.3699 4.90321 19.4207 4.954C19.4715 5.00479 19.5 5.07368 19.5 5.14551V5.95801C19.5 6.24533 19.6141 6.52088 19.8173 6.72404C20.0205 6.9272 20.296 7.04134 20.5833 7.04134C20.8706 7.04134 21.1462 6.9272 21.3494 6.72404C21.5525 6.52088 21.6667 6.24533 21.6667 5.95801V4.87467C21.6667 4.30004 21.4384 3.74894 21.0321 3.34261C20.6257 2.93628 20.0746 2.70801 19.5 2.70801H17.875C17.5877 2.70801 17.3121 2.82214 17.109 3.02531C16.9058 3.22847 16.7917 3.50402 16.7917 3.79134C16.7917 4.07866 16.9058 4.35421 17.109 4.55737C17.3121 4.76054 17.5877 4.87467 17.875 4.87467Z" fill="#CA8A04"/>
<path d="M7.58203 5.95833H14.082C14.513 5.95833 14.9263 5.78713 15.2311 5.48238C15.5358 5.17764 15.707 4.76431 15.707 4.33333V3.79167C15.707 3.36069 15.5358 2.94736 15.2311 2.64262C14.9263 2.33787 14.513 2.16667 14.082 2.16667H12.9987C12.9987 1.59203 12.7704 1.04093 12.3641 0.634602C11.9578 0.228273 11.4067 0 10.832 0C10.2574 0 9.7063 0.228273 9.29997 0.634602C8.89364 1.04093 8.66536 1.59203 8.66536 2.16667H7.58203C7.15105 2.16667 6.73773 2.33787 6.43298 2.64262C6.12824 2.94736 5.95703 3.36069 5.95703 3.79167V4.33333C5.95703 4.76431 6.12824 5.17764 6.43298 5.48238C6.73773 5.78713 7.15105 5.95833 7.58203 5.95833ZM4.33203 10.8333C4.33203 11.1207 4.44617 11.3962 4.64933 11.5994C4.8525 11.8025 5.12805 11.9167 5.41536 11.9167H14.082C14.3693 11.9167 14.6449 11.8025 14.8481 11.5994C15.0512 11.3962 15.1654 11.1207 15.1654 10.8333C15.1654 10.546 15.0512 10.2705 14.8481 10.0673C14.6449 9.86414 14.3693 9.75 14.082 9.75H5.41536C5.12805 9.75 4.8525 9.86414 4.64933 10.0673C4.44617 10.2705 4.33203 10.546 4.33203 10.8333ZM5.41536 15.1667C5.12805 15.1667 4.8525 15.2808 4.64933 15.484C4.44617 15.6871 4.33203 15.9627 4.33203 16.25C4.33203 16.5373 4.44617 16.8129 4.64933 17.016C4.8525 17.2192 5.12805 17.3333 5.41536 17.3333H10.2904C10.5777 17.3333 10.8532 17.2192 11.0564 17.016C11.2596 16.8129 11.3737 16.5373 11.3737 16.25C11.3737 15.9627 11.2596 15.6871 11.0564 15.484C10.8532 15.2808 10.5777 15.1667 10.2904 15.1667H5.41536ZM25.3595 8.92667C24.9536 8.52312 24.4044 8.29662 23.832 8.29662C23.2596 8.29662 22.7105 8.52312 22.3045 8.92667L13.7787 17.4525C13.7255 17.504 13.6847 17.567 13.6595 17.6367L12.1212 21.4608C12.0829 21.5595 12.0738 21.6671 12.095 21.7708C12.1161 21.8745 12.1666 21.97 12.2404 22.0458C12.3147 22.1221 12.4102 22.1742 12.5145 22.1955C12.6188 22.2167 12.7271 22.2061 12.8254 22.165L16.6604 20.6375C16.7281 20.6085 16.7903 20.5682 16.8445 20.5183L25.3595 11.9925C25.561 11.7913 25.7208 11.5523 25.8298 11.2893C25.9389 11.0263 25.995 10.7443 25.995 10.4596C25.995 10.1748 25.9389 9.89291 25.8298 9.62988C25.7208 9.36685 25.561 9.12789 25.3595 8.92667Z" fill="#CA8A04"/>
</svg>
