<svg width="30" height="30" viewBox="0 0 30 30" fill="none" xmlns="http://www.w3.org/2000/svg">
<path d="M23.75 23.2375C23.4185 23.2375 23.1005 23.3692 22.8661 23.6036C22.6317 23.838 22.5 24.156 22.5 24.4875V27.1875C22.5 27.2704 22.4671 27.3499 22.4085 27.4085C22.3499 27.4671 22.2704 27.5 22.1875 27.5H2.8125C2.73377 27.5003 2.65785 27.4708 2.59992 27.4175C2.54198 27.3642 2.5063 27.291 2.5 27.2125V5.9625C2.5 5.87962 2.53292 5.80013 2.59153 5.74153C2.65013 5.68292 2.72962 5.65 2.8125 5.65H4.375C4.70652 5.65 5.02446 5.5183 5.25888 5.28388C5.4933 5.04946 5.625 4.73152 5.625 4.4C5.625 4.06848 5.4933 3.75054 5.25888 3.51612C5.02446 3.2817 4.70652 3.15 4.375 3.15H2.5C1.83696 3.15 1.20107 3.41339 0.732233 3.88223C0.263392 4.35107 0 4.98696 0 5.65L0 27.5C0 28.163 0.263392 28.7989 0.732233 29.2678C1.20107 29.7366 1.83696 30 2.5 30H22.5C23.163 30 23.7989 29.7366 24.2678 29.2678C24.7366 28.7989 25 28.163 25 27.5V24.4875C25 24.156 24.8683 23.838 24.6339 23.6036C24.3995 23.3692 24.0815 23.2375 23.75 23.2375ZM20.625 5.625H22.1875C22.2704 5.625 22.3499 5.65792 22.4085 5.71653C22.4671 5.77513 22.5 5.85462 22.5 5.9375V6.875C22.5 7.20652 22.6317 7.52446 22.8661 7.75888C23.1005 7.9933 23.4185 8.125 23.75 8.125C24.0815 8.125 24.3995 7.9933 24.6339 7.75888C24.8683 7.52446 25 7.20652 25 6.875V5.625C25 4.96196 24.7366 4.32607 24.2678 3.85723C23.7989 3.38839 23.163 3.125 22.5 3.125H20.625C20.2935 3.125 19.9755 3.2567 19.7411 3.49112C19.5067 3.72554 19.375 4.04348 19.375 4.375C19.375 4.70652 19.5067 5.02446 19.7411 5.25888C19.9755 5.4933 20.2935 5.625 20.625 5.625Z" fill="#34C9B0"/>
<path d="M8.75 6.875H16.25C16.7473 6.875 17.2242 6.67746 17.5758 6.32583C17.9275 5.97419 18.125 5.49728 18.125 5V4.375C18.125 3.87772 17.9275 3.40081 17.5758 3.04917C17.2242 2.69754 16.7473 2.5 16.25 2.5H15C15 1.83696 14.7366 1.20107 14.2678 0.732233C13.7989 0.263392 13.163 0 12.5 0C11.837 0 11.2011 0.263392 10.7322 0.732233C10.2634 1.20107 10 1.83696 10 2.5H8.75C8.25272 2.5 7.77581 2.69754 7.42417 3.04917C7.07254 3.40081 6.875 3.87772 6.875 4.375V5C6.875 5.49728 7.07254 5.97419 7.42417 6.32583C7.77581 6.67746 8.25272 6.875 8.75 6.875ZM5 12.5C5 12.8315 5.1317 13.1495 5.36612 13.3839C5.60054 13.6183 5.91848 13.75 6.25 13.75H16.25C16.5815 13.75 16.8995 13.6183 17.1339 13.3839C17.3683 13.1495 17.5 12.8315 17.5 12.5C17.5 12.1685 17.3683 11.8505 17.1339 11.6161C16.8995 11.3817 16.5815 11.25 16.25 11.25H6.25C5.91848 11.25 5.60054 11.3817 5.36612 11.6161C5.1317 11.8505 5 12.1685 5 12.5ZM6.25 17.5C5.91848 17.5 5.60054 17.6317 5.36612 17.8661C5.1317 18.1005 5 18.4185 5 18.75C5 19.0815 5.1317 19.3995 5.36612 19.6339C5.60054 19.8683 5.91848 20 6.25 20H11.875C12.2065 20 12.5245 19.8683 12.7589 19.6339C12.9933 19.3995 13.125 19.0815 13.125 18.75C13.125 18.4185 12.9933 18.1005 12.7589 17.8661C12.5245 17.6317 12.2065 17.5 11.875 17.5H6.25ZM29.2625 10.3C28.7941 9.83437 28.1605 9.57302 27.5 9.57302C26.8395 9.57302 26.2059 9.83437 25.7375 10.3L15.9 20.1375C15.8386 20.197 15.7916 20.2696 15.7625 20.35L13.9875 24.7625C13.9434 24.8764 13.9329 25.0005 13.9572 25.1202C13.9816 25.2398 14.0398 25.35 14.125 25.4375C14.2107 25.5255 14.321 25.5856 14.4413 25.6101C14.5617 25.6347 14.6867 25.6224 14.8 25.575L19.225 23.8125C19.3031 23.779 19.375 23.7325 19.4375 23.675L29.2625 13.8375C29.4949 13.6053 29.6793 13.3296 29.8051 13.0261C29.931 12.7226 29.9957 12.3973 29.9957 12.0687C29.9957 11.7402 29.931 11.4149 29.8051 11.1114C29.6793 10.8079 29.4949 10.5322 29.2625 10.3Z" fill="#34C9B0"/>
</svg>
