<svg width="30" height="30" viewBox="0 0 30 30" fill="none" xmlns="http://www.w3.org/2000/svg">
<path d="M21.6 2.00001C22.234 2.00001 22.782 2.00001 23.228 2.04001C23.688 2.08401 24.144 2.18001 24.568 2.44001L24.858 2.64401C25.136 2.86331 25.373 3.13009 25.558 3.43201L25.724 3.75601C25.864 4.08401 25.926 4.42601 25.958 4.77201C26.002 5.21801 26 5.76601 26 6.40001V23.6C26 24.234 26 24.782 25.96 25.228C25.9341 25.5768 25.8545 25.9195 25.724 26.244L25.558 26.568C25.373 26.8699 25.136 27.1367 24.858 27.356L24.568 27.558C24.144 27.818 23.688 27.916 23.228 27.958C22.782 28.002 22.234 28 21.6 28H8.40001C7.76601 28 7.21801 28 6.77201 27.96C6.42322 27.9341 6.08053 27.8545 5.75601 27.724L5.43201 27.558C5.1301 27.373 4.86331 27.136 4.64401 26.858L4.44201 26.568C4.20498 26.1591 4.06793 25.7 4.04201 25.228C3.99801 24.782 4.00001 24.234 4.00001 23.6V6.40001C4.00001 5.76601 4.00001 5.21801 4.04001 4.77201C4.08401 4.31201 4.18001 3.85601 4.44001 3.43201L4.64401 3.14201C4.86331 2.864 5.1301 2.62701 5.43201 2.44201L5.75601 2.27601C6.08064 2.14624 6.42333 2.06732 6.77201 2.04201C7.21801 1.99801 7.76601 2.00001 8.40001 2.00001H21.6ZM8.40001 4.00001C7.91975 3.99213 7.43937 4.00347 6.96001 4.03401C6.84668 4.04243 6.73428 4.0605 6.62401 4.08801L6.47601 4.14801C6.40926 4.18866 6.34751 4.23699 6.29201 4.29201L6.14601 4.47601C6.11201 4.53401 6.06401 4.64801 6.03401 4.96001C6.00347 5.43937 5.99213 5.91975 6.00001 6.40001V23.6C6.00001 24.274 6.00201 24.71 6.03401 25.04C6.06401 25.352 6.11201 25.466 6.14601 25.524L6.29201 25.706C6.34729 25.7624 6.40905 25.8121 6.47601 25.854L6.62401 25.914C6.69801 25.934 6.80401 25.952 6.96001 25.966C7.29001 25.998 7.72601 26 8.40001 26H21.6C22.274 26 22.71 25.998 23.04 25.966C23.352 25.938 23.466 25.888 23.524 25.854L23.706 25.708C23.7624 25.6527 23.8121 25.591 23.854 25.524L23.914 25.376C23.934 25.302 23.952 25.196 23.966 25.04C23.999 24.5608 24.0103 24.0803 24 23.6V6.40001C24.0103 5.91975 23.999 5.43926 23.966 4.96001C23.9576 4.84668 23.9395 4.73428 23.912 4.62401L23.852 4.47601C23.8114 4.40926 23.763 4.34751 23.708 4.29201L23.524 4.14601C23.466 4.11201 23.352 4.06401 23.04 4.03401C22.5607 4.00347 22.0803 3.99213 21.6 4.00001H8.40001ZM16 20C16.2652 20 16.5196 20.1054 16.7071 20.2929C16.8947 20.4804 17 20.7348 17 21C17 21.2652 16.8947 21.5196 16.7071 21.7071C16.5196 21.8947 16.2652 22 16 22H10C9.7348 22 9.48044 21.8947 9.29291 21.7071C9.10537 21.5196 9.00001 21.2652 9.00001 21C9.00001 20.7348 9.10537 20.4804 9.29291 20.2929C9.48044 20.1054 9.7348 20 10 20H16ZM20 14C20.2652 14 20.5196 14.1054 20.7071 14.2929C20.8947 14.4804 21 14.7348 21 15C21 15.2652 20.8947 15.5196 20.7071 15.7071C20.5196 15.8947 20.2652 16 20 16H10C9.7348 16 9.48044 15.8947 9.29291 15.7071C9.10537 15.5196 9.00001 15.2652 9.00001 15C9.00001 14.7348 9.10537 14.4804 9.29291 14.2929C9.48044 14.1054 9.7348 14 10 14H20ZM20.2 8.02001C20.4261 8.06592 20.6293 8.18856 20.7753 8.36716C20.9213 8.54576 21.001 8.76934 21.001 9.00001C21.001 9.23068 20.9213 9.45426 20.7753 9.63287C20.6293 9.81147 20.4261 9.93411 20.2 9.98001L20 10H10C9.7348 10 9.48044 9.89466 9.29291 9.70712C9.10537 9.51958 9.00001 9.26523 9.00001 9.00001C9.00001 8.7348 9.10537 8.48044 9.29291 8.29291C9.48044 8.10537 9.7348 8.00001 10 8.00001H20L20.2 8.02001Z" fill="#0284C7"/>
</svg>
