<svg width="50" height="50" viewBox="0 0 50 50" fill="none" xmlns="http://www.w3.org/2000/svg">
<circle cx="25" cy="25" r="25" fill="#34C9B0"/>
<path d="M29.0605 14.9276C28.0357 13.8212 26.6043 13.2119 25.0245 13.2119C23.4362 13.2119 22.0001 13.8175 20.98 14.9171C19.9489 16.0288 19.4465 17.5397 19.5645 19.1712C19.7983 22.3899 22.2476 25.0082 25.0245 25.0082C27.8013 25.0082 30.2465 22.3904 30.484 19.1722C30.6035 17.5555 30.0979 16.0478 29.0605 14.9276ZM34.293 36.8046H15.7559C15.5133 36.8077 15.273 36.7568 15.0526 36.6554C14.8321 36.554 14.637 36.4047 14.4815 36.2184C14.1392 35.8093 14.0012 35.2505 14.1034 34.6854C14.5479 32.2198 15.935 30.1486 18.1152 28.6946C20.0521 27.4038 22.5056 26.6934 25.0245 26.6934C27.5433 26.6934 29.9968 27.4044 31.9337 28.6946C34.114 30.1481 35.5011 32.2193 35.9456 34.6849C36.0477 35.25 35.9097 35.8087 35.5674 36.2179C35.412 36.4043 35.2169 36.5536 34.9965 36.6551C34.776 36.7566 34.5357 36.8077 34.293 36.8046Z" fill="white"/>
</svg>
