<svg width="33" height="33" viewBox="0 0 33 33" fill="none" xmlns="http://www.w3.org/2000/svg">
<path d="M18.2867 4.32812L30.1585 24.8899C30.3395 25.2034 30.4348 25.5591 30.4348 25.9211C30.4348 26.2831 30.3395 26.6388 30.1585 26.9524C29.9775 27.2659 29.7171 27.5263 29.4036 27.7073C29.0901 27.8883 28.7344 27.9836 28.3724 27.9836H4.62885C4.26681 27.9836 3.91115 27.8883 3.59762 27.7073C3.28409 27.5263 3.02373 27.2659 2.84272 26.9524C2.6617 26.6388 2.5664 26.2831 2.56641 25.9211C2.56641 25.5591 2.66171 25.2034 2.84273 24.8899L14.7145 4.32812C15.5079 2.95312 17.492 2.95312 18.2867 4.32812ZM16.5006 6.73437L5.8196 25.2336H27.1816L16.5006 6.73437ZM16.5006 20.6246C16.8653 20.6246 17.215 20.7695 17.4729 21.0274C17.7307 21.2852 17.8756 21.635 17.8756 21.9996C17.8756 22.3643 17.7307 22.714 17.4729 22.9719C17.215 23.2298 16.8653 23.3746 16.5006 23.3746C16.1359 23.3746 15.7862 23.2298 15.5283 22.9719C15.2705 22.714 15.1256 22.3643 15.1256 21.9996C15.1256 21.635 15.2705 21.2852 15.5283 21.0274C15.7862 20.7695 16.1359 20.6246 16.5006 20.6246ZM16.5006 10.9996C16.8653 10.9996 17.215 11.1445 17.4729 11.4024C17.7307 11.6602 17.8756 12.01 17.8756 12.3746V17.8746C17.8756 18.2393 17.7307 18.589 17.4729 18.8469C17.215 19.1048 16.8653 19.2496 16.5006 19.2496C16.1359 19.2496 15.7862 19.1048 15.5283 18.8469C15.2705 18.589 15.1256 18.2393 15.1256 17.8746V12.3746C15.1256 12.01 15.2705 11.6602 15.5283 11.4024C15.7862 11.1445 16.1359 10.9996 16.5006 10.9996Z" fill="#D20000"/>
</svg>
