<svg width="20" height="20" viewBox="0 0 20 20" fill="none" xmlns="http://www.w3.org/2000/svg">
<path d="M7.14984 14.3748L7.9165 11.1332L5.4165 8.98317L8.70817 8.67484L9.99984 5.6665L11.2915 8.70817L14.5832 8.98317L12.0832 11.1332L12.8498 14.3748L9.99984 12.6582L7.14984 14.3748ZM9.99984 1.6665C11.0942 1.6665 12.1778 1.88205 13.1889 2.30084C14.1999 2.71963 15.1186 3.33346 15.8924 4.10728C16.6662 4.8811 17.28 5.79976 17.6988 6.81081C18.1176 7.82185 18.3332 8.90549 18.3332 9.99984C18.3332 12.21 17.4552 14.3296 15.8924 15.8924C14.3296 17.4552 12.21 18.3332 9.99984 18.3332C8.90549 18.3332 7.82185 18.1176 6.81081 17.6988C5.79976 17.28 4.8811 16.6662 4.10728 15.8924C2.54448 14.3296 1.6665 12.21 1.6665 9.99984C1.6665 7.7897 2.54448 5.67008 4.10728 4.10728C5.67008 2.54448 7.7897 1.6665 9.99984 1.6665ZM9.99984 3.33317C8.23173 3.33317 6.53603 4.03555 5.28579 5.28579C4.03555 6.53603 3.33317 8.23173 3.33317 9.99984C3.33317 11.7679 4.03555 13.4636 5.28579 14.7139C6.53603 15.9641 8.23173 16.6665 9.99984 16.6665C11.7679 16.6665 13.4636 15.9641 14.7139 14.7139C15.9641 13.4636 16.6665 11.7679 16.6665 9.99984C16.6665 8.23173 15.9641 6.53603 14.7139 5.28579C13.4636 4.03555 11.7679 3.33317 9.99984 3.33317Z" fill="#2FB69E"/>
</svg>
