<svg width="63" height="63" viewBox="0 0 63 63" fill="none" xmlns="http://www.w3.org/2000/svg">
<path d="M31.4737 5.25C16.9837 5.25 5.25 17.01 5.25 31.5C5.25 45.99 16.9837 57.75 31.4737 57.75C45.99 57.75 57.75 45.99 57.75 31.5C57.75 17.01 45.99 5.25 31.4737 5.25ZM31.5 52.5C19.8975 52.5 10.5 43.1025 10.5 31.5C10.5 19.8975 19.8975 10.5 31.5 10.5C43.1025 10.5 52.5 19.8975 52.5 31.5C52.5 43.1025 43.1025 52.5 31.5 52.5ZM40.6875 28.875C42.8662 28.875 44.625 27.1162 44.625 24.9375C44.625 22.7588 42.8662 21 40.6875 21C38.5088 21 36.75 22.7588 36.75 24.9375C36.75 27.1162 38.5088 28.875 40.6875 28.875ZM22.3125 28.875C24.4912 28.875 26.25 27.1162 26.25 24.9375C26.25 22.7588 24.4912 21 22.3125 21C20.1337 21 18.375 22.7588 18.375 24.9375C18.375 27.1162 20.1337 28.875 22.3125 28.875ZM31.5 36.75C25.3838 36.75 20.1862 40.5825 18.0862 45.9375H44.9137C42.8138 40.5825 37.6162 36.75 31.5 36.75Z" fill="#F97316"/>
</svg>
