<svg width="33" height="33" viewBox="0 0 33 33" fill="none" xmlns="http://www.w3.org/2000/svg">
<path d="M2.75 26.125C2.75 28.4625 4.5375 30.25 6.875 30.25H26.125C28.4625 30.25 30.25 28.4625 30.25 26.125V15.125H2.75V26.125ZM26.125 5.5H23.375V4.125C23.375 3.3 22.825 2.75 22 2.75C21.175 2.75 20.625 3.3 20.625 4.125V5.5H12.375V4.125C12.375 3.3 11.825 2.75 11 2.75C10.175 2.75 9.625 3.3 9.625 4.125V5.5H6.875C4.5375 5.5 2.75 7.2875 2.75 9.625V12.375H30.25V9.625C30.25 7.2875 28.4625 5.5 26.125 5.5Z" fill="#2FB69E"/>
</svg>
