<svg width="60" height="60" viewBox="0 0 60 60" fill="none" xmlns="http://www.w3.org/2000/svg">
<circle cx="30" cy="30" r="30" fill="#CDF0EA"/>
<path d="M33 34.5C33.425 34.5 33.794 34.344 34.107 34.032C34.42 33.72 34.576 33.351 34.575 32.925C34.574 32.499 34.418 32.1305 34.107 31.8195C33.796 31.5085 33.427 31.352 33 31.35C32.573 31.348 32.2045 31.5045 31.8945 31.8195C31.5845 32.1345 31.428 32.503 31.425 32.925C31.422 33.347 31.5785 33.716 31.8945 34.032C32.2105 34.348 32.579 34.504 33 34.5ZM31.875 29.7H34.125C34.125 28.975 34.2 28.444 34.35 28.107C34.5 27.77 34.85 27.326 35.4 26.775C36.15 26.025 36.65 25.419 36.9 24.957C37.15 24.495 37.275 23.951 37.275 23.325C37.275 22.2 36.881 21.2815 36.093 20.5695C35.305 19.8575 34.274 19.501 33 19.5C31.975 19.5 31.0815 19.7875 30.3195 20.3625C29.5575 20.9375 29.026 21.7 28.725 22.65L30.75 23.475C30.975 22.85 31.2815 22.3815 31.6695 22.0695C32.0575 21.7575 32.501 21.601 33 21.6C33.6 21.6 34.0875 21.769 34.4625 22.107C34.8375 22.445 35.025 22.901 35.025 23.475C35.025 23.825 34.925 24.1565 34.725 24.4695C34.525 24.7825 34.175 25.176 33.675 25.65C32.85 26.375 32.344 26.944 32.157 27.357C31.97 27.77 31.876 28.551 31.875 29.7ZM24 39C23.175 39 22.469 38.7065 21.882 38.1195C21.295 37.5325 21.001 36.826 21 36V18C21 17.175 21.294 16.469 21.882 15.882C22.47 15.295 23.176 15.001 24 15H42C42.825 15 43.5315 15.294 44.1195 15.882C44.7075 16.47 45.001 17.176 45 18V36C45 36.825 44.7065 37.5315 44.1195 38.1195C43.5325 38.7075 42.826 39.001 42 39H24ZM18 45C17.175 45 16.469 44.7065 15.882 44.1195C15.295 43.5325 15.001 42.826 15 42V21H18V42H39V45H18Z" fill="#34C9B0"/>
</svg>
