<svg width="30" height="30" viewBox="0 0 30 30" fill="none" xmlns="http://www.w3.org/2000/svg">
<path fill-rule="evenodd" clip-rule="evenodd" d="M3.75436 10.2076C3.82186 8.26633 4.79999 6.08758 6.38561 4.99133C8.94811 3.21758 12.0287 3.45195 14.0969 5.0607C14.426 5.31737 14.7271 5.60695 15 5.92945C15.2695 5.60921 15.5718 5.31804 15.9019 5.0607C17.9706 3.44883 21.0519 3.20758 23.6137 4.99133C25.1994 6.08758 26.1775 8.26633 26.245 10.2076C26.4675 16.4726 19.4356 22.5645 15 26.2501C10.5837 22.5213 3.54686 16.4951 3.75436 10.2076ZM14.4437 24.1357V22.2207H13.8881C13.6692 22.2206 13.4525 22.1774 13.2503 22.0936C13.0481 22.0097 12.8644 21.8869 12.7096 21.732C12.5549 21.5772 12.4322 21.3934 12.3485 21.1911C12.2648 20.9889 12.2218 20.7721 12.2219 20.5532V19.442C12.2218 19.2231 12.2648 19.0063 12.3485 18.804C12.4322 18.6018 12.5549 18.418 12.7096 18.2631C12.8644 18.1083 13.0481 17.9854 13.2503 17.9016C13.4525 17.8177 13.6692 17.7745 13.8881 17.7745H14.4444V15.5513H11.1106V13.8838C11.1106 13.7364 11.0521 13.595 10.9479 13.4907C10.8437 13.3864 10.7024 13.3277 10.555 13.3276H9.44374C9.29643 13.3279 9.15527 13.3867 9.05122 13.4909C8.94717 13.5952 8.88874 13.7365 8.88874 13.8838V15.5513H6.58686C7.14436 16.5032 7.82874 17.452 8.60562 18.3901C10.3775 20.5288 12.5206 22.4807 14.4437 24.1357ZM5.99499 14.4395H7.77749V13.8838C7.77741 13.6649 7.82044 13.4482 7.90413 13.2459C7.98783 13.0436 8.11054 12.8598 8.26526 12.705C8.41999 12.5501 8.6037 12.4273 8.8059 12.3435C9.00811 12.2596 9.22484 12.2164 9.44374 12.2163H10.555C10.7739 12.2163 10.9907 12.2595 11.193 12.3433C11.3953 12.4271 11.5791 12.5499 11.7339 12.7048C11.8887 12.8596 12.0114 13.0434 12.0952 13.2458C12.1789 13.4481 12.2219 13.6649 12.2219 13.8838V14.4401H14.4437V11.1051H16.1106C16.258 11.1049 16.3994 11.0462 16.5035 10.9419C16.6077 10.8376 16.6662 10.6962 16.6662 10.5488V9.43758C16.6662 9.29016 16.6077 9.14877 16.5035 9.04447C16.3994 8.94017 16.258 8.88149 16.1106 8.88133H14.4437V7.2107L14.0437 6.73445C12.63 5.05508 10.075 4.43883 7.78499 5.60758L7.75062 5.62508H7.75186C7.52569 5.74305 7.30695 5.87475 7.09686 6.01945C5.90374 6.84445 5.06124 8.61445 5.00374 10.2501C4.99334 10.5495 5.00253 10.8493 5.03124 11.1476C5.13124 12.2363 5.46999 13.3376 5.99499 14.4395ZM15.555 7.2107V7.77008H16.1106C16.3296 7.77008 16.5464 7.81321 16.7486 7.89702C16.9509 7.98083 17.1347 8.10367 17.2895 8.25852C17.4443 8.41337 17.5671 8.59719 17.6508 8.7995C17.7345 9.00181 17.7776 9.21863 17.7775 9.43758V10.5495C17.7775 10.7684 17.7344 10.9851 17.6506 11.1873C17.5668 11.3896 17.4441 11.5733 17.2893 11.7281C17.1345 11.8829 16.9507 12.0057 16.7485 12.0894C16.5463 12.1732 16.3295 12.2163 16.1106 12.2163H15.555V14.4395H18.8881V16.107C18.8881 16.4138 19.1369 16.6632 19.4444 16.6632H20.555C20.7024 16.663 20.8437 16.6044 20.9479 16.5001C21.0521 16.3958 21.1106 16.2544 21.1106 16.107V14.4395H24.0119C24.1348 14.1811 24.2471 13.923 24.3487 13.6651C24.7331 12.687 24.9612 11.7132 24.9956 10.7526C25.0019 10.5855 25.0019 10.4186 24.9956 10.252V10.2501C24.9387 8.61445 24.0956 6.84383 22.9025 6.01883L22.8994 6.01695C22.6808 5.86549 22.4529 5.72813 22.2169 5.6057L22.2187 5.60695L22.1844 5.58945C19.9044 4.4357 17.3656 5.0582 15.9562 6.7332L15.555 7.2107ZM23.4237 15.5513H22.2219V16.1076C22.2219 16.5497 22.0462 16.9736 21.7336 17.2862C21.421 17.5988 20.9971 17.7745 20.555 17.7745H19.4437C19.2248 17.7744 19.0081 17.7312 18.8059 17.6473C18.6037 17.5635 18.42 17.4406 18.2653 17.2858C18.1105 17.131 17.9878 16.9472 17.9041 16.7449C17.8204 16.5426 17.7774 16.3258 17.7775 16.107V15.5507H15.555V18.8863H13.8881C13.7409 18.8867 13.5998 18.9453 13.4958 19.0495C13.3918 19.1536 13.3333 19.2948 13.3331 19.442V20.5532C13.3331 20.8601 13.5819 21.1095 13.8887 21.1095H15.555V24.1507C17.4831 22.507 19.6331 20.5463 21.405 18.4001C22.1831 17.4582 22.8669 16.5063 23.4237 15.5513Z" fill="#34C9B0" stroke="#34C9B0" stroke-width="0.5"/>
</svg>
