<svg width="30" height="30" viewBox="0 0 30 30" fill="none" xmlns="http://www.w3.org/2000/svg">
<path d="M10.5812 8.8123L21.1887 19.4198L16.8574 23.7498H25.0012C25.3327 23.7498 25.6507 23.8815 25.8851 24.1159C26.1195 24.3503 26.2512 24.6683 26.2512 24.9998C26.2512 25.3313 26.1195 25.6493 25.8851 25.8837C25.6507 26.1181 25.3327 26.2498 25.0012 26.2498H11.1174C10.6203 26.2494 10.1437 26.0515 9.79243 25.6998L3.50993 19.4198C3.27768 19.1876 3.09344 18.912 2.96774 18.6086C2.84204 18.3052 2.77734 17.9801 2.77734 17.6517C2.77734 17.3233 2.84204 16.9981 2.96774 16.6947C3.09344 16.3913 3.27768 16.1157 3.50993 15.8835L10.5812 8.8123ZM19.4199 3.5098L26.4912 10.5798C26.7234 10.812 26.9077 11.0876 27.0334 11.391C27.1591 11.6944 27.2238 12.0195 27.2238 12.3479C27.2238 12.6763 27.1591 13.0015 27.0334 13.3049C26.9077 13.6082 26.7234 13.8839 26.4912 14.116L22.9562 17.651L12.3499 7.0448L15.8849 3.5098C16.3538 3.04112 16.9895 2.77783 17.6524 2.77783C18.3153 2.77783 18.9511 3.04112 19.4199 3.5098Z" fill="white"/>
</svg>
