<svg width="42" height="42" viewBox="0 0 42 42" fill="none" xmlns="http://www.w3.org/2000/svg">
<mask id="mask0_41_544" style="mask-type:luminance" maskUnits="userSpaceOnUse" x="2" y="2" width="38" height="38">
<path d="M21 38.5C23.2986 38.5028 25.575 38.0515 27.6986 37.1718C29.8222 36.2922 31.751 35.0016 33.3743 33.3743C35.0016 31.751 36.2922 29.8222 37.1718 27.6986C38.0515 25.575 38.5028 23.2986 38.5 21C38.5028 18.7015 38.0515 16.425 37.1718 14.3014C36.2922 12.1779 35.0016 10.249 33.3743 8.62576C31.751 6.9984 29.8222 5.70783 27.6986 4.82819C25.575 3.94855 23.2986 3.49718 21 3.50001C18.7015 3.49718 16.425 3.94855 14.3014 4.82819C12.1779 5.70783 10.249 6.9984 8.62576 8.62576C6.9984 10.249 5.70783 12.1779 4.82819 14.3014C3.94855 16.425 3.49718 18.7015 3.50001 21C3.49718 23.2986 3.94855 25.575 4.82819 27.6986C5.70783 29.8222 6.9984 31.751 8.62576 33.3743C10.249 35.0016 12.1779 36.2922 14.3014 37.1718C16.425 38.0515 18.7015 38.5028 21 38.5Z" fill="white" stroke="white" stroke-width="2" stroke-linejoin="round"/>
<path d="M14 21L19.25 26.25L29.75 15.75" stroke="black" stroke-width="2" stroke-linecap="round" stroke-linejoin="round"/>
</mask>
<g mask="url(#mask0_41_544)">
<path d="M0 0H42V42H0V0Z" fill="#166534"/>
</g>
</svg>
