<svg width="40" height="40" viewBox="0 0 40 40" fill="none" xmlns="http://www.w3.org/2000/svg">
<path d="M13.2321 4.09036C12.7635 4.55918 12.5002 5.19495 12.5002 5.85786C12.5002 6.52077 12.7635 7.15655 13.2321 7.62536L25.6071 20.0004L13.2321 32.3754C12.7767 32.8469 12.5248 33.4784 12.5305 34.1339C12.5361 34.7894 12.7991 35.4164 13.2626 35.8799C13.7261 36.3434 14.3531 36.6064 15.0086 36.612C15.6641 36.6177 16.2956 36.3658 16.7671 35.9104L30.9096 21.7679C31.3783 21.299 31.6416 20.6633 31.6416 20.0004C31.6416 19.3375 31.3783 18.7017 30.9096 18.2329L16.7671 4.09036C16.2983 3.62169 15.6625 3.3584 14.9996 3.3584C14.3367 3.3584 13.701 3.62169 13.2321 4.09036Z" fill="#BFBFBF"/>
</svg>
