<svg width="30" height="30" viewBox="0 0 30 30" fill="none" xmlns="http://www.w3.org/2000/svg">
<path d="M25.8875 8.8002C25.4625 9.2252 25.05 9.6377 25.0375 10.0502C25 10.4502 25.425 10.8627 25.825 11.2502C26.425 11.8752 27.0125 12.4377 26.9875 13.0502C26.9625 13.6627 26.325 14.3002 25.6875 14.9252L20.525 20.1002L18.75 18.3252L24.0625 13.0252L22.8625 11.8252L21.0875 13.5877L16.4 8.9002L21.2 4.1127C21.6875 3.6252 22.5 3.6252 22.9625 4.1127L25.8875 7.0377C26.375 7.5002 26.375 8.3127 25.8875 8.8002ZM3.75 21.5627L15.7 9.60019L20.3875 14.2877L8.4375 26.2502H3.75V21.5627Z" fill="white"/>
</svg>
