<svg width="60" height="60" viewBox="0 0 60 60" fill="none" xmlns="http://www.w3.org/2000/svg">
<circle cx="30" cy="30" r="30" fill="#CDF0EA"/>
<path d="M30 35.25C31.35 35.25 32.5815 34.8815 33.6945 34.1445C34.8075 33.4075 35.651 32.426 36.225 31.2C36.4 30.825 36.4 30.45 36.225 30.075C36.05 29.7 35.7625 29.4375 35.3625 29.2875C34.9875 29.1375 34.619 29.144 34.257 29.307C33.895 29.47 33.626 29.7385 33.45 30.1125C33.15 30.7875 32.6815 31.3125 32.0445 31.6875C31.4075 32.0625 30.726 32.25 30 32.25C29.274 32.25 28.593 32.0625 27.957 31.6875C27.321 31.3125 26.852 30.7875 26.55 30.1125C26.375 29.7375 26.1065 29.469 25.7445 29.307C25.3825 29.145 25.0135 29.1385 24.6375 29.2875C24.2375 29.4375 23.95 29.7 23.775 30.075C23.6 30.45 23.6 30.825 23.775 31.2C24.35 32.425 25.194 33.4065 26.307 34.1445C27.42 34.8825 28.651 35.251 30 35.25ZM25.875 27.75C26.4 27.75 26.844 27.5685 27.207 27.2055C27.57 26.8425 27.751 26.399 27.75 25.875C27.749 25.351 27.5675 24.907 27.2055 24.543C26.8435 24.179 26.4 23.998 25.875 24C25.35 24.002 24.906 24.1835 24.543 24.5445C24.18 24.9055 23.999 25.349 24 25.875C24.001 26.401 24.1825 26.845 24.5445 27.207C24.9065 27.569 25.35 27.75 25.875 27.75ZM34.125 27.75C34.65 27.75 35.094 27.5685 35.457 27.2055C35.82 26.8425 36.001 26.399 36 25.875C35.999 25.351 35.8175 24.907 35.4555 24.543C35.0935 24.179 34.65 23.998 34.125 24C33.6 24.002 33.156 24.1835 32.793 24.5445C32.43 24.9055 32.249 25.349 32.25 25.875C32.251 26.401 32.4325 26.845 32.7945 27.207C33.1565 27.569 33.6 27.75 34.125 27.75ZM30 19.65C30.85 18.65 31.8625 17.875 33.0375 17.325C34.2125 16.775 35.45 16.5 36.75 16.5C39.1 16.5 41.0625 17.2875 42.6375 18.8625C44.2125 20.4375 45 22.4 45 24.75C45 25.8 44.844 26.8065 44.532 27.7695C44.22 28.7325 43.6825 29.77 42.9195 30.882C42.1565 31.994 41.1315 33.2125 39.8445 34.5375C38.5575 35.8625 36.9385 37.4 34.9875 39.15L31.9875 41.775C31.4125 42.275 30.75 42.525 30 42.525C29.25 42.525 28.5875 42.275 28.0125 41.775L25.0125 39.15C23.0625 37.4 21.4435 35.8625 20.1555 34.5375C18.8675 33.2125 17.8425 31.994 17.0805 30.882C16.3185 29.77 15.781 28.7325 15.468 27.7695C15.155 26.8065 14.999 25.8 15 24.75C15 22.4 15.7875 20.4375 17.3625 18.8625C18.9375 17.2875 20.9 16.5 23.25 16.5C24.55 16.5 25.7875 16.775 26.9625 17.325C28.1375 17.875 29.15 18.65 30 19.65Z" fill="#34C9B0"/>
</svg>
