<svg width="42" height="42" viewBox="0 0 42 42" fill="none" xmlns="http://www.w3.org/2000/svg">
<path fill-rule="evenodd" clip-rule="evenodd" d="M21 38.5C30.6652 38.5 38.5 30.6652 38.5 21C38.5 11.3348 30.6652 3.5 21 3.5C11.3348 3.5 3.5 11.3348 3.5 21C3.5 30.6652 11.3348 38.5 21 38.5ZM28.1155 13.8845C28.3613 14.1306 28.4993 14.4642 28.4993 14.812C28.4993 15.1598 28.3613 15.4934 28.1155 15.7395L22.855 21L28.1138 26.2588C28.3456 26.5076 28.4718 26.8366 28.4658 27.1767C28.4598 27.5167 28.3221 27.8411 28.0816 28.0816C27.8411 28.3221 27.5167 28.4598 27.1767 28.4658C26.8366 28.4718 26.5076 28.3456 26.2588 28.1138L21 22.8585L15.7413 28.1172C15.6211 28.2462 15.4762 28.3496 15.3152 28.4214C15.1542 28.4931 14.9804 28.5317 14.8042 28.5348C14.6279 28.5379 14.4529 28.5055 14.2895 28.4395C14.126 28.3735 13.9776 28.2752 13.8529 28.1506C13.7283 28.0259 13.63 27.8775 13.564 27.714C13.498 27.5506 13.4656 27.3756 13.4687 27.1993C13.4718 27.0231 13.5104 26.8493 13.5821 26.6883C13.6539 26.5273 13.7573 26.3824 13.8862 26.2622L19.1415 21L13.8845 15.7413C13.7555 15.6211 13.6521 15.4762 13.5804 15.3152C13.5086 15.1542 13.4701 14.9804 13.467 14.8042C13.4639 14.6279 13.4963 14.4529 13.5623 14.2895C13.6283 14.126 13.7266 13.9776 13.8512 13.8529C13.9758 13.7283 14.1243 13.63 14.2877 13.564C14.4511 13.498 14.6262 13.4656 14.8024 13.4687C14.9786 13.4718 15.1524 13.5104 15.3134 13.5821C15.4744 13.6539 15.6193 13.7573 15.7395 13.8862L21 19.1415L26.2588 13.8828C26.5048 13.637 26.8384 13.4989 27.1862 13.4989C27.5341 13.4989 27.8677 13.637 28.1138 13.8828" fill="#EF4444"/>
</svg>
