<svg width="30" height="30" viewBox="0 0 30 30" fill="none" xmlns="http://www.w3.org/2000/svg">
<path d="M12.1587 10.38L15.0812 13.3025C15.5355 13.754 16.1501 14.0074 16.7906 14.0074C17.4311 14.0074 18.0456 13.754 18.5 13.3025L26.7325 5.0575C26.7902 5.0039 26.8661 4.97413 26.945 4.97413C27.0238 4.97413 27.0997 5.0039 27.1575 5.0575L28.4787 6.37875C28.59 6.49125 28.7437 6.55375 28.9037 6.54875C28.9795 6.56625 29.0558 6.56625 29.1325 6.54875C29.2491 6.50113 29.348 6.41837 29.4154 6.31197C29.4828 6.20556 29.5155 6.08079 29.5087 5.955V1.105C29.5087 0.944209 29.4448 0.790007 29.3311 0.676313C29.2174 0.562619 29.0632 0.498747 28.9025 0.498747H24.0525C23.9248 0.48921 23.7973 0.520359 23.6884 0.587727C23.5795 0.655095 23.4947 0.75522 23.4462 0.873747C23.3993 0.983578 23.3869 1.1051 23.4108 1.22213C23.4347 1.33915 23.4937 1.44611 23.58 1.52875L25.0112 2.91125C25.0403 2.93849 25.0634 2.9714 25.0793 3.00795C25.0951 3.0445 25.1033 3.08391 25.1033 3.12375C25.1033 3.16358 25.0951 3.20299 25.0793 3.23954C25.0634 3.27609 25.0403 3.30901 25.0112 3.33625L21.3737 6.97375C18.1087 -0.767503 7.68996 -2.07125 2.61996 4.625C1.12746 6.59489 0.347847 9.01306 0.408707 11.4837C0.411207 11.8887 0.435373 12.2929 0.481207 12.6962C0.517116 12.9919 0.66055 13.2639 0.884164 13.4605C1.10778 13.6572 1.39594 13.7647 1.69371 13.7625H1.83871C1.9972 13.7445 2.15059 13.6954 2.29007 13.618C2.42956 13.5406 2.5524 13.4365 2.65157 13.3115C2.75074 13.1866 2.82427 13.0433 2.86797 12.8899C2.91166 12.7365 2.92466 12.5759 2.90621 12.4175C2.88733 12.0861 2.88733 11.7539 2.90621 11.4225C3.12246 4.8375 10.3875 0.953747 15.9825 4.4325C17.6302 5.45726 18.881 7.01131 19.53 8.84L17.0087 11.4C16.9489 11.4545 16.8709 11.4846 16.79 11.4846C16.709 11.4846 16.631 11.4545 16.5712 11.4L13.65 8.4525C13.1956 8.00099 12.5811 7.74757 11.9406 7.74757C11.3001 7.74757 10.6855 8.00099 10.2312 8.4525L0.773707 17.8975C0.547112 18.1257 0.420472 18.4347 0.421644 18.7563C0.422816 19.0779 0.551705 19.3859 0.779957 19.6125C1.00821 19.8391 1.31713 19.9657 1.63875 19.9646C1.96038 19.9634 2.26836 19.8345 2.49496 19.6062L3.19871 18.9037C4.24858 20.0353 5.51777 20.9413 6.929 21.5667C8.34023 22.192 9.86398 22.5236 11.4075 22.5412C13.818 22.5466 16.1625 21.7537 18.075 20.2862C18.1311 20.2395 18.2019 20.2139 18.275 20.2139C18.348 20.2139 18.4188 20.2395 18.475 20.2862L20.1725 21.9837C20.2136 22.0237 20.2424 22.0746 20.2554 22.1305C20.2685 22.1863 20.2653 22.2447 20.2462 22.2987C20.1308 22.6219 20.1094 22.9712 20.1846 23.306C20.2599 23.6408 20.4286 23.9473 20.6712 24.19L25.375 28.9062C26.63 30.2875 28.91 29.7912 29.4787 28.0125C29.6205 27.5684 29.6313 27.0929 29.5098 26.6429C29.3883 26.1929 29.1397 25.7874 28.7937 25.475L24.1012 20.735C23.7587 20.3966 23.2977 20.2052 22.8162 20.2012C22.6079 20.2012 22.4058 20.2375 22.21 20.31C22.156 20.3292 22.0977 20.3326 22.0419 20.3198C21.986 20.307 21.9351 20.2784 21.895 20.2375L20.1975 18.54C20.149 18.4846 20.1223 18.4136 20.1223 18.34C20.1223 18.2664 20.149 18.1954 20.1975 18.14C20.9379 17.1618 21.5115 16.0679 21.895 14.9025C21.9516 14.7494 21.9767 14.5865 21.9689 14.4235C21.961 14.2604 21.9203 14.1007 21.8492 13.9537C21.7782 13.8068 21.6781 13.6758 21.5552 13.5684C21.4322 13.4611 21.2889 13.3797 21.1337 13.3291C20.9785 13.2785 20.8147 13.2597 20.6521 13.2739C20.4895 13.2881 20.3315 13.3351 20.1874 13.4118C20.0434 13.4886 19.9164 13.5937 19.8139 13.7207C19.7115 13.8478 19.6357 13.9942 19.5912 14.1512C19.0283 15.8682 17.9375 17.3635 16.4744 18.4237C15.0112 19.4839 13.2506 20.0548 11.4437 20.055C10.225 20.0464 9.0212 19.7869 7.9072 19.2927C6.7932 18.7985 5.79293 18.0802 4.96871 17.1825L11.7587 10.38C11.8141 10.3316 11.8851 10.3049 11.9587 10.3049C12.0323 10.3049 12.1033 10.3316 12.1587 10.38Z" fill="#34C9B0"/>
</svg>
