<svg width="41" height="41" viewBox="0 0 41 41" fill="none" xmlns="http://www.w3.org/2000/svg">
<path d="M15.3751 17.0835C15.3928 15.7298 15.9384 14.4365 16.8957 13.4792C17.853 12.5218 19.1463 11.9762 20.5001 11.9585C21.8538 11.9762 23.1471 12.5218 24.1044 13.4792C25.0617 14.4365 25.6074 15.7298 25.6251 17.0835C25.6074 18.4372 25.0617 19.7305 24.1044 20.6879C23.1471 21.6452 21.8538 22.1908 20.5001 22.2085C19.1463 22.1908 17.853 21.6452 16.8957 20.6879C15.9384 19.7305 15.3928 18.4372 15.3751 17.0835ZM20.5001 32.4585L27.3334 34.1668V28.9052C25.2726 30.1462 22.9054 30.7853 20.5001 30.7502C18.0947 30.7853 15.7275 30.1462 13.6667 28.9052V34.1668M20.5001 6.83351C19.1538 6.80895 17.8168 7.05997 16.5712 7.57115C15.3255 8.08233 14.1976 8.84287 13.2567 9.80601C12.2832 10.7479 11.5138 11.8801 10.9966 13.1321C10.4793 14.3841 10.2252 15.7291 10.2501 17.0835C10.2323 18.4293 10.4898 19.7646 11.0068 21.0073C11.5239 22.2499 12.2895 23.3738 13.2567 24.3098C14.1932 25.2822 15.3192 26.0522 16.565 26.5723C17.8109 27.0924 19.1501 27.3514 20.5001 27.3335C21.85 27.3514 23.1892 27.0924 24.4351 26.5723C25.6809 26.0522 26.8069 25.2822 27.7434 24.3098C28.7106 23.3738 29.4762 22.2499 29.9933 21.0073C30.5103 19.7646 30.7679 18.4293 30.7501 17.0835C30.7749 15.7291 30.5208 14.3841 30.0035 13.1321C29.4863 11.8801 28.7169 10.7479 27.7434 9.80601C26.8025 8.84287 25.6746 8.08233 24.4289 7.57115C23.1833 7.05997 21.8463 6.80895 20.5001 6.83351ZM34.1667 17.0835C34.1318 18.7235 33.802 20.3438 33.193 21.8668C32.647 23.4177 31.8188 24.8541 30.7501 26.1035V39.2918L20.5001 35.8752L10.2501 39.2918V26.1035C8.03895 23.6204 6.82229 20.4084 6.83339 17.0835C6.80328 15.2908 7.14096 13.5109 7.82556 11.8537C8.51017 10.1965 9.52718 8.69729 10.8138 7.44851C12.0672 6.15034 13.5734 5.12284 15.2394 4.42942C16.9053 3.736 18.6957 3.39139 20.5001 3.41684C22.3044 3.39139 24.0948 3.736 25.7608 4.42942C27.4267 5.12284 28.9329 6.15034 30.1863 7.44851C31.4729 8.69729 32.49 10.1965 33.1746 11.8537C33.8592 13.5109 34.1968 15.2908 34.1667 17.0835Z" fill="#2FB69E"/>
</svg>
