<svg width="41" height="41" viewBox="0 0 41 41" fill="none" xmlns="http://www.w3.org/2000/svg">
<path d="M32.4582 6.83317H29.0415V5.12484C29.0415 4.67176 28.8615 4.23724 28.5411 3.91686C28.2208 3.59649 27.7862 3.4165 27.3332 3.4165C26.8801 3.4165 26.4456 3.59649 26.1252 3.91686C25.8048 4.23724 25.6248 4.67176 25.6248 5.12484V6.83317H15.3748V5.12484C15.3748 4.67176 15.1949 4.23724 14.8745 3.91686C14.5541 3.59649 14.1196 3.4165 13.6665 3.4165C13.2134 3.4165 12.7789 3.59649 12.4585 3.91686C12.1382 4.23724 11.9582 4.67176 11.9582 5.12484V6.83317H8.5415C7.18227 6.83317 5.87871 7.37312 4.91758 8.33425C3.95646 9.29537 3.4165 10.5989 3.4165 11.9582V32.4582C3.4165 33.8174 3.95646 35.121 4.91758 36.0821C5.87871 37.0432 7.18227 37.5832 8.5415 37.5832H32.4582C33.8174 37.5832 35.121 37.0432 36.0821 36.0821C37.0432 35.121 37.5832 33.8174 37.5832 32.4582V11.9582C37.5832 10.5989 37.0432 9.29537 36.0821 8.33425C35.121 7.37312 33.8174 6.83317 32.4582 6.83317ZM34.1665 32.4582C34.1665 32.9112 33.9865 33.3458 33.6661 33.6661C33.3458 33.9865 32.9112 34.1665 32.4582 34.1665H8.5415C8.08843 34.1665 7.6539 33.9865 7.33353 33.6661C7.01316 33.3458 6.83317 32.9112 6.83317 32.4582V20.4998H34.1665V32.4582ZM34.1665 17.0832H6.83317V11.9582C6.83317 11.5051 7.01316 11.0706 7.33353 10.7502C7.6539 10.4298 8.08843 10.2498 8.5415 10.2498H11.9582V11.9582C11.9582 12.4112 12.1382 12.8458 12.4585 13.1661C12.7789 13.4865 13.2134 13.6665 13.6665 13.6665C14.1196 13.6665 14.5541 13.4865 14.8745 13.1661C15.1949 12.8458 15.3748 12.4112 15.3748 11.9582V10.2498H25.6248V11.9582C25.6248 12.4112 25.8048 12.8458 26.1252 13.1661C26.4456 13.4865 26.8801 13.6665 27.3332 13.6665C27.7862 13.6665 28.2208 13.4865 28.5411 13.1661C28.8615 12.8458 29.0415 12.4112 29.0415 11.9582V10.2498H32.4582C32.9112 10.2498 33.3458 10.4298 33.6661 10.7502C33.9865 11.0706 34.1665 11.5051 34.1665 11.9582V17.0832Z" fill="#2FB69E"/>
</svg>
