<svg width="22" height="24" viewBox="0 0 22 24" fill="none" xmlns="http://www.w3.org/2000/svg">
<path d="M21.091 14.909C21.0912 14.6561 21.0028 14.4112 20.841 14.217L20.842 14.219V14.214C20.822 14.1893 20.8007 14.166 20.778 14.144L20.769 14.135L20.74 14.106L16.729 10.095V1.81995C16.729 1.21695 16.24 0.728953 15.638 0.728953H10.115C10.0399 0.516322 9.9007 0.332216 9.71659 0.20201C9.53247 0.0718043 9.3125 0.00190756 9.087 0.00195315H7.631C7.159 0.00195315 6.757 0.301953 6.606 0.721953L6.604 0.729953H1.091C0.488 0.729953 0 1.21895 0 1.82095V20.002C0 20.605 0.489 21.093 1.091 21.093H4.364V22.911C4.364 23.514 4.853 24.002 5.455 24.002H19.999C20.602 24.002 21.09 23.513 21.09 22.911V14.939L21.091 14.911V14.909ZM13.09 9.54295L17.365 13.818H13.09V9.54295ZM2.181 18.909V2.91295H4.426C4.58 3.33995 4.982 3.63995 5.454 3.63995H11.272C11.744 3.63995 12.146 3.33995 12.297 2.91995L12.299 2.91195H14.544V7.91395L12.77 6.13695C12.748 6.11489 12.725 6.09387 12.701 6.07395L12.678 6.05595L12.625 6.01595L12.599 5.99495L12.54 5.95895L12.513 5.94595C12.4866 5.93175 12.4596 5.91873 12.432 5.90695L12.399 5.89295L12.342 5.87295L12.304 5.86095L12.24 5.84495L12.212 5.83795L12.119 5.82395H5.453C4.85 5.82395 4.362 6.31295 4.362 6.91495V18.907L2.181 18.909ZM6.544 21.821V7.99995H10.907V14.909C10.907 15.511 11.396 15.999 11.998 15.999H18.908V21.817L6.544 21.821Z" fill="#2FB69E"/>
</svg>
