<svg width="33" height="33" viewBox="0 0 33 33" fill="none" xmlns="http://www.w3.org/2000/svg">
<path d="M16.7992 19.4418L15.5156 18.9557C15.8594 18.0482 16.4438 17.0637 17.365 16.04L18.3873 16.9599C17.574 17.864 17.0804 18.6993 16.7992 19.4418Z" fill="#34C9B0"/>
<path fill-rule="evenodd" clip-rule="evenodd" d="M10.6996 4.8125C6.89906 4.8125 4.125 8.69 4.125 12.8728C4.125 22.209 16.5 28.1875 16.5 28.1875C16.5 28.1875 28.875 21.824 28.875 12.8728C28.875 8.69138 26.1009 4.8125 22.3011 4.8125C19.6639 4.8125 17.7066 6.55256 16.5 9.02069C15.2921 6.55256 13.3361 4.8125 10.6996 4.8125ZM11.6875 17.1593C11.6875 19.0891 13.8476 19.7051 15.4282 19.1923C14.6733 21.4273 15.3746 23.1688 15.9988 23.8425L17.0074 22.9075C16.7571 22.638 16.1824 21.5229 16.6574 19.8674C17.4873 21.4053 21.3125 21.5992 21.3125 18.6986V11C19.3311 12.6768 17.2143 13.3396 15.4722 13.8854C13.2846 14.5702 11.6875 15.07 11.6875 17.1593Z" fill="#34C9B0"/>
</svg>
