<svg width="30" height="30" viewBox="0 0 30 30" fill="none" xmlns="http://www.w3.org/2000/svg">
<path d="M7.5 17.5H17.5V15H7.5V17.5ZM7.5 13.75H22.5V11.25H7.5V13.75ZM7.5 10H22.5V7.5H7.5V10ZM2.5 27.5V5C2.5 4.3125 2.745 3.72417 3.235 3.235C3.725 2.74583 4.31333 2.50083 5 2.5H25C25.6875 2.5 26.2763 2.745 26.7663 3.235C27.2563 3.725 27.5008 4.31333 27.5 5V20C27.5 20.6875 27.2554 21.2763 26.7663 21.7663C26.2771 22.2563 25.6883 22.5008 25 22.5H7.5L2.5 27.5ZM6.4375 20H25V5H5V21.4062L6.4375 20Z" fill="#34C9B0"/>
</svg>
