<svg width="53" height="53" viewBox="0 0 53 53" fill="none" xmlns="http://www.w3.org/2000/svg">
<path fill-rule="evenodd" clip-rule="evenodd" d="M4.73214 26.5C4.73214 20.7268 7.02554 15.1901 11.1078 11.1078C15.1901 7.02554 20.7268 4.73214 26.5 4.73214C32.2732 4.73214 37.8099 7.02554 41.8922 11.1078C45.9745 15.1901 48.2679 20.7268 48.2679 26.5C48.2679 32.2732 45.9745 37.8099 41.8922 41.8922C37.8099 45.9745 32.2732 48.2679 26.5 48.2679C20.7268 48.2679 15.1901 45.9745 11.1078 41.8922C7.02554 37.8099 4.73214 32.2732 4.73214 26.5ZM26.5 0C19.4718 0 12.7314 2.79196 7.76167 7.76167C2.79196 12.7314 0 19.4718 0 26.5C0 33.5282 2.79196 40.2686 7.76167 45.2383C12.7314 50.208 19.4718 53 26.5 53C33.5282 53 40.2686 50.208 45.2383 45.2383C50.208 40.2686 53 33.5282 53 26.5C53 19.4718 50.208 12.7314 45.2383 7.76167C40.2686 2.79196 33.5282 0 26.5 0ZM17.9821 16.0893C18.9862 16.0893 19.9491 16.4881 20.659 17.1981C21.369 17.9081 21.7679 18.871 21.7679 19.875C21.7679 20.879 21.369 21.8419 20.659 22.5519C19.9491 23.2619 18.9862 23.6607 17.9821 23.6607C16.9781 23.6607 16.0152 23.2619 15.3052 22.5519C14.5953 21.8419 14.1964 20.879 14.1964 19.875C14.1964 18.871 14.5953 17.9081 15.3052 17.1981C16.0152 16.4881 16.9781 16.0893 17.9821 16.0893ZM31.2321 19.875C31.2321 20.879 31.631 21.8419 32.341 22.5519C33.0509 23.2619 34.0138 23.6607 35.0179 23.6607C36.0219 23.6607 36.9848 23.2619 37.6948 22.5519C38.4047 21.8419 38.8036 20.879 38.8036 19.875C38.8036 18.871 38.4047 17.9081 37.6948 17.1981C36.9848 16.4881 36.0219 16.0893 35.0179 16.0893C34.0138 16.0893 33.0509 16.4881 32.341 17.1981C31.631 17.9081 31.2321 18.871 31.2321 19.875ZM12.9888 27.5638C13.3462 27.4573 13.7212 27.4223 14.0921 27.4608C14.4631 27.4992 14.8229 27.6104 15.1509 27.7879C15.4789 27.9655 15.7687 28.2059 16.0038 28.4955C16.2388 28.785 16.4145 29.1181 16.5209 29.4756C17.1645 31.6218 18.483 33.5033 20.2807 34.841C22.0783 36.1786 24.2593 36.901 26.5 36.901C28.7407 36.901 30.9217 36.1786 32.7193 34.841C34.517 33.5033 35.8355 31.6218 36.4791 29.4756C36.694 28.7537 37.1868 28.1467 37.8492 27.7882C38.5116 27.4296 39.2893 27.3489 40.0112 27.5638C40.7331 27.7787 41.3401 28.2715 41.6986 28.9339C42.0572 29.5963 42.1379 30.374 41.923 31.0959C40.931 34.4156 38.8943 37.3266 36.1157 39.3964C33.3371 41.4661 29.9648 42.584 26.5 42.584C23.0352 42.584 19.6629 41.4661 16.8843 39.3964C14.1057 37.3266 12.069 34.4156 11.077 31.0959C10.9705 30.7384 10.9355 30.3635 10.974 29.9925C11.0124 29.6215 11.1236 29.2618 11.3011 28.9338C11.4787 28.6057 11.7191 28.3159 12.0087 28.0809C12.2982 27.8458 12.6313 27.6701 12.9888 27.5638Z" fill="#84CC16"/>
</svg>
