<svg width="25" height="25" viewBox="0 0 25 25" fill="none" xmlns="http://www.w3.org/2000/svg">
<path d="M16.6667 5.20818L19.0552 2.81963C19.2506 2.62435 19.5155 2.51465 19.7917 2.51465C20.0679 2.51465 20.3328 2.62435 20.5281 2.81963L22.1802 4.47172C22.3755 4.66706 22.4852 4.93196 22.4852 5.20818C22.4852 5.48439 22.3755 5.74929 22.1802 5.94463L19.7917 8.33318M16.6667 5.20818L10.7219 11.153C10.5265 11.3483 10.4167 11.6132 10.4167 11.8894V13.5415C10.4167 13.8178 10.5264 14.0827 10.7218 14.2781C10.9171 14.4734 11.1821 14.5832 11.4583 14.5832H13.1104C13.3867 14.5831 13.6516 14.4733 13.8469 14.278L19.7917 8.33318M16.6667 5.20818L19.7917 8.33318M6.25 14.5832H5.20833C4.6558 14.5832 4.12589 14.8027 3.73519 15.1934C3.34449 15.5841 3.125 16.114 3.125 16.6665C3.125 17.219 3.34449 17.7489 3.73519 18.1396C4.12589 18.5303 4.6558 18.7498 5.20833 18.7498H19.7917C20.3442 18.7498 20.8741 18.9693 21.2648 19.36C21.6555 19.7507 21.875 20.2806 21.875 20.8332C21.875 21.3857 21.6555 21.9156 21.2648 22.3063C20.8741 22.697 20.3442 22.9165 19.7917 22.9165H15.625" stroke="#2FB69E" stroke-width="2" stroke-linecap="round" stroke-linejoin="round"/>
</svg>
