<svg width="30" height="30" viewBox="0 0 30 30" fill="none" xmlns="http://www.w3.org/2000/svg">
<path fill-rule="evenodd" clip-rule="evenodd" d="M6.83753 6.83741C7.01331 6.66184 7.25159 6.56323 7.50003 6.56323C7.74847 6.56323 7.98675 6.66184 8.16253 6.83741L23.1625 21.8374C23.2546 21.9232 23.3285 22.0267 23.3798 22.1417C23.431 22.2567 23.4585 22.3809 23.4608 22.5068C23.463 22.6326 23.4398 22.7577 23.3927 22.8744C23.3455 22.9911 23.2754 23.0972 23.1863 23.1862C23.0973 23.2752 22.9913 23.3454 22.8745 23.3926C22.7578 23.4397 22.6328 23.4629 22.5069 23.4606C22.381 23.4584 22.2569 23.4309 22.1419 23.3796C22.0269 23.3284 21.9234 23.2545 21.8375 23.1624L6.83753 8.16241C6.66197 7.98663 6.56335 7.74835 6.56335 7.49991C6.56335 7.25147 6.66197 7.01319 6.83753 6.83741Z" fill="black"/>
<path fill-rule="evenodd" clip-rule="evenodd" d="M23.1626 6.83741C23.3381 7.01319 23.4367 7.25147 23.4367 7.49991C23.4367 7.74835 23.3381 7.98663 23.1626 8.16241L8.16255 23.1624C7.98483 23.328 7.74978 23.4182 7.5069 23.4139C7.26402 23.4096 7.03229 23.3112 6.86052 23.1394C6.68876 22.9677 6.59037 22.7359 6.58608 22.4931C6.5818 22.2502 6.67195 22.0151 6.83755 21.8374L21.8376 6.83741C22.0133 6.66184 22.2516 6.56323 22.5001 6.56323C22.7485 6.56323 22.9868 6.66184 23.1626 6.83741Z" fill="black"/>
</svg>
