<svg width="54" height="54" viewBox="0 0 54 54" fill="none" xmlns="http://www.w3.org/2000/svg">
<g filter="url(#filter0_di_102_1082)">
<circle cx="27" cy="25" r="25" fill="white"/>
</g>
<path d="M40.7908 17.1467C40.2525 17.6851 39.73 18.2076 39.7142 18.7301C39.6667 19.2367 40.205 19.7592 40.7117 20.2501C41.4717 21.0417 42.2158 21.7542 42.1842 22.5301C42.1525 23.3059 41.345 24.1134 40.5375 24.9051L33.9983 31.4601L31.75 29.2117L38.4792 22.4984L36.9592 20.9784L34.7108 23.2109L28.7733 17.2734L34.8533 11.2092C35.4708 10.5917 36.5 10.5917 37.0858 11.2092L40.7908 14.9142C41.4083 15.5001 41.4083 16.5292 40.7908 17.1467ZM12.75 33.3126L27.8867 18.1601L33.8242 24.0976L18.6875 39.2501H12.75V33.3126Z" fill="#878787"/>
<defs>
<filter id="filter0_di_102_1082" x="0" y="0" width="54" height="54" filterUnits="userSpaceOnUse" color-interpolation-filters="sRGB">
<feFlood flood-opacity="0" result="BackgroundImageFix"/>
<feColorMatrix in="SourceAlpha" type="matrix" values="0 0 0 0 0 0 0 0 0 0 0 0 0 0 0 0 0 0 127 0" result="hardAlpha"/>
<feOffset dy="2"/>
<feGaussianBlur stdDeviation="1"/>
<feComposite in2="hardAlpha" operator="out"/>
<feColorMatrix type="matrix" values="0 0 0 0 0 0 0 0 0 0 0 0 0 0 0 0 0 0 0.25 0"/>
<feBlend mode="normal" in2="BackgroundImageFix" result="effect1_dropShadow_102_1082"/>
<feBlend mode="normal" in="SourceGraphic" in2="effect1_dropShadow_102_1082" result="shape"/>
<feColorMatrix in="SourceAlpha" type="matrix" values="0 0 0 0 0 0 0 0 0 0 0 0 0 0 0 0 0 0 127 0" result="hardAlpha"/>
<feOffset dy="2"/>
<feGaussianBlur stdDeviation="1"/>
<feComposite in2="hardAlpha" operator="arithmetic" k2="-1" k3="1"/>
<feColorMatrix type="matrix" values="0 0 0 0 0 0 0 0 0 0 0 0 0 0 0 0 0 0 0.25 0"/>
<feBlend mode="normal" in2="shape" result="effect2_innerShadow_102_1082"/>
</filter>
</defs>
</svg>
