<svg width="30" height="30" viewBox="0 0 30 30" fill="none" xmlns="http://www.w3.org/2000/svg">
<path d="M15 19.375C16.125 19.375 17.1513 19.0679 18.0788 18.4538C19.0063 17.8396 19.7092 17.0217 20.1875 16C20.3333 15.6875 20.3333 15.375 20.1875 15.0625C20.0417 14.75 19.8021 14.5313 19.4688 14.4063C19.1563 14.2813 18.8492 14.2867 18.5475 14.4225C18.2458 14.5583 18.0217 14.7821 17.875 15.0938C17.625 15.6563 17.2346 16.0938 16.7038 16.4063C16.1729 16.7188 15.605 16.875 15 16.875C14.395 16.875 13.8275 16.7188 13.2975 16.4063C12.7675 16.0938 12.3767 15.6563 12.125 15.0938C11.9792 14.7813 11.7554 14.5575 11.4538 14.4225C11.1521 14.2875 10.8446 14.2821 10.5313 14.4063C10.1979 14.5313 9.95834 14.75 9.8125 15.0625C9.66667 15.375 9.66667 15.6875 9.8125 16C10.2917 17.0208 10.995 17.8388 11.9225 18.4538C12.85 19.0688 13.8758 19.3758 15 19.375ZM11.5625 13.125C12 13.125 12.37 12.9738 12.6725 12.6713C12.975 12.3688 13.1258 11.9992 13.125 11.5625C13.1242 11.1258 12.9729 10.7558 12.6713 10.4525C12.3696 10.1492 12 9.99833 11.5625 10C11.125 10.0017 10.755 10.1529 10.4525 10.4538C10.15 10.7546 9.99917 11.1242 10 11.5625C10.0008 12.0008 10.1521 12.3708 10.4538 12.6725C10.7554 12.9742 11.125 13.125 11.5625 13.125ZM18.4375 13.125C18.875 13.125 19.245 12.9738 19.5475 12.6713C19.85 12.3688 20.0008 11.9992 20 11.5625C19.9992 11.1258 19.8479 10.7558 19.5463 10.4525C19.2446 10.1492 18.875 9.99833 18.4375 10C18 10.0017 17.63 10.1529 17.3275 10.4538C17.025 10.7546 16.8742 11.1242 16.875 11.5625C16.8758 12.0008 17.0271 12.3708 17.3288 12.6725C17.6304 12.9742 18 13.125 18.4375 13.125ZM15 6.375C15.7083 5.54167 16.5521 4.89583 17.5313 4.4375C18.5104 3.97917 19.5417 3.75 20.625 3.75C22.5833 3.75 24.2188 4.40625 25.5313 5.71875C26.8438 7.03125 27.5 8.66667 27.5 10.625C27.5 11.5 27.37 12.3387 27.11 13.1413C26.85 13.9438 26.4021 14.8083 25.7663 15.735C25.1304 16.6617 24.2763 17.6771 23.2038 18.7813C22.1313 19.8854 20.7821 21.1667 19.1563 22.625L16.6563 24.8125C16.1771 25.2292 15.625 25.4375 15 25.4375C14.375 25.4375 13.8229 25.2292 13.3438 24.8125L10.8438 22.625C9.21875 21.1667 7.86959 19.8854 6.79625 18.7813C5.72292 17.6771 4.86875 16.6617 4.23375 15.735C3.59875 14.8083 3.15084 13.9438 2.89 13.1413C2.62917 12.3387 2.49917 11.5 2.5 10.625C2.5 8.66667 3.15625 7.03125 4.46875 5.71875C5.78125 4.40625 7.41667 3.75 9.375 3.75C10.4583 3.75 11.4896 3.97917 12.4688 4.4375C13.4479 4.89583 14.2917 5.54167 15 6.375Z" fill="#0D9488"/>
</svg>
