<svg width="30" height="30" viewBox="0 0 30 30" fill="none" xmlns="http://www.w3.org/2000/svg">
<path fill-rule="evenodd" clip-rule="evenodd" d="M21.25 26.25C19.9239 26.25 18.6521 25.7232 17.7145 24.7855C16.7768 23.8479 16.25 22.5761 16.25 21.25C16.25 19.9239 16.7768 18.6521 17.7145 17.7145C18.6521 16.7768 19.9239 16.25 21.25 16.25C22.5761 16.25 23.8479 16.7768 24.7855 17.7145C25.7232 18.6521 26.25 19.9239 26.25 21.25C26.25 22.5761 25.7232 23.8479 24.7855 24.7855C23.8479 25.7232 22.5761 26.25 21.25 26.25ZM20.6344 23.9263C20.473 23.889 20.3329 23.7893 20.2451 23.6489C20.1572 23.5085 20.1286 23.3389 20.1656 23.1775L21.1156 19.0425C21.1528 18.8809 21.2526 18.7406 21.3931 18.6526C21.5336 18.5646 21.7034 18.536 21.865 18.5731C22.0266 18.6103 22.1669 18.7101 22.2549 18.8506C22.3429 18.9911 22.3715 19.1609 22.3344 19.3225L21.3837 23.4575C21.3653 23.5375 21.3313 23.6131 21.2837 23.6799C21.2361 23.7467 21.1757 23.8036 21.1061 23.8471C21.0366 23.8906 20.9591 23.92 20.8781 23.9336C20.7972 23.9472 20.7144 23.9447 20.6344 23.9263Z" fill="#2563EB"/>
<path d="M24.2218 10.4859C25.1793 10.0815 25.2755 8.72779 24.3862 8.18467L17.428 3.93217C16.6255 3.44154 15.6005 3.98967 15.5324 4.94654L15.0037 12.3628C14.9349 13.319 15.8712 14.0153 16.7349 13.6503L24.2218 10.4859Z" fill="#2563EB"/>
<path fill-rule="evenodd" clip-rule="evenodd" d="M7.27309 22.1149C7.69338 23.0163 8.45453 23.7139 9.38911 24.0541C10.3237 24.3943 11.3551 24.3493 12.2565 23.929C13.1579 23.5087 13.8555 22.7476 14.1957 21.813C14.5359 20.8784 14.4909 19.847 14.0706 18.9456L10.9018 12.1481C10.4816 11.2466 9.72037 10.549 8.78574 10.2087C7.8511 9.86843 6.81958 9.91339 5.91809 10.3337C5.0166 10.754 4.319 11.5151 3.97873 12.4498C3.63847 13.3844 3.68343 14.4159 4.10372 15.3174L7.27309 22.1149ZM7.06684 18.7137L8.40622 21.5868C8.69055 22.181 9.19792 22.639 9.81805 22.8612C10.4382 23.0834 11.1209 23.0518 11.7179 22.7734C12.3149 22.495 12.7779 21.9922 13.0063 21.3743C13.2347 20.7565 13.2099 20.0734 12.9375 19.4737L11.5981 16.6006L7.06684 18.7137Z" fill="#2563EB"/>
</svg>
