<svg width="63" height="63" viewBox="0 0 63 63" fill="none" xmlns="http://www.w3.org/2000/svg">
<path d="M31.5 57.75C17.0021 57.75 5.25 45.9979 5.25 31.5C5.25 17.0021 17.0021 5.25 31.5 5.25C45.9979 5.25 57.75 17.0021 57.75 31.5C57.75 45.9979 45.9979 57.75 31.5 57.75ZM31.5 52.5C37.0695 52.5 42.411 50.2875 46.3492 46.3492C50.2875 42.411 52.5 37.0695 52.5 31.5C52.5 25.9305 50.2875 20.589 46.3492 16.6508C42.411 12.7125 37.0695 10.5 31.5 10.5C25.9305 10.5 20.589 12.7125 16.6508 16.6508C12.7125 20.589 10.5 25.9305 10.5 31.5C10.5 37.0695 12.7125 42.411 16.6508 46.3492C20.589 50.2875 25.9305 52.5 31.5 52.5ZM21 36.75H42V42H21V36.75ZM21 28.875C19.9557 28.875 18.9542 28.4602 18.2158 27.7217C17.4773 26.9833 17.0625 25.9818 17.0625 24.9375C17.0625 23.8932 17.4773 22.8917 18.2158 22.1533C18.9542 21.4148 19.9557 21 21 21C22.0443 21 23.0458 21.4148 23.7842 22.1533C24.5227 22.8917 24.9375 23.8932 24.9375 24.9375C24.9375 25.9818 24.5227 26.9833 23.7842 27.7217C23.0458 28.4602 22.0443 28.875 21 28.875ZM42 28.875C40.9557 28.875 39.9542 28.4602 39.2158 27.7217C38.4773 26.9833 38.0625 25.9818 38.0625 24.9375C38.0625 23.8932 38.4773 22.8917 39.2158 22.1533C39.9542 21.4148 40.9557 21 42 21C43.0443 21 44.0458 21.4148 44.7842 22.1533C45.5227 22.8917 45.9375 23.8932 45.9375 24.9375C45.9375 25.9818 45.5227 26.9833 44.7842 27.7217C44.0458 28.4602 43.0443 28.875 42 28.875Z" fill="#EAB308"/>
</svg>
