<svg width="33" height="33" viewBox="0 0 33 33" fill="none" xmlns="http://www.w3.org/2000/svg">
<path d="M18.1508 4.9498C18.1508 4.5122 17.9769 4.09251 17.6675 3.78308C17.3581 3.47364 16.9384 3.2998 16.5008 3.2998C16.0632 3.2998 15.6435 3.47364 15.3341 3.78308C15.0246 4.09251 14.8508 4.5122 14.8508 4.9498V6.5998C14.8508 7.03741 15.0246 7.4571 15.3341 7.76653C15.6435 8.07597 16.0632 8.2498 16.5008 8.2498C16.9384 8.2498 17.3581 8.07597 17.6675 7.76653C17.9769 7.4571 18.1508 7.03741 18.1508 6.5998V4.9498ZM25.8348 9.49885C26.1354 9.18766 26.3017 8.77087 26.2979 8.33824C26.2942 7.90562 26.1207 7.49178 25.8147 7.18585C25.5088 6.87993 25.095 6.7064 24.6623 6.70264C24.2297 6.69888 23.8129 6.86519 23.5017 7.16575L22.3352 8.3323C22.0346 8.6435 21.8683 9.06029 21.8721 9.49292C21.8758 9.92554 22.0494 10.3394 22.3553 10.6453C22.6612 10.9512 23.075 11.1248 23.5077 11.1285C23.9403 11.1323 24.3571 10.966 24.6683 10.6654L25.8348 9.49885ZM29.7008 16.4998C29.7008 16.9374 29.5269 17.3571 29.2175 17.6665C28.9081 17.976 28.4884 18.1498 28.0508 18.1498H26.4008C25.9632 18.1498 25.5435 17.976 25.2341 17.6665C24.9246 17.3571 24.7508 16.9374 24.7508 16.4998C24.7508 16.0622 24.9246 15.6425 25.2341 15.3331C25.5435 15.0236 25.9632 14.8498 26.4008 14.8498H28.0508C28.4884 14.8498 28.9081 15.0236 29.2175 15.3331C29.5269 15.6425 29.7008 16.0622 29.7008 16.4998ZM8.33328 10.6654C8.48549 10.823 8.66756 10.9487 8.86886 11.0352C9.07017 11.1216 9.28668 11.1672 9.50577 11.1691C9.72485 11.171 9.94213 11.1292 10.1449 11.0463C10.3477 10.9633 10.5319 10.8408 10.6868 10.6859C10.8418 10.5309 10.9643 10.3467 11.0472 10.1439C11.1302 9.94115 11.1719 9.72388 11.17 9.50479C11.1681 9.28571 11.1226 9.06919 11.0361 8.86789C10.9497 8.66658 10.824 8.48451 10.6664 8.3323L9.49983 7.16575C9.18864 6.86519 8.77184 6.69888 8.33922 6.70264C7.90659 6.7064 7.49275 6.87993 7.18683 7.18585C6.88091 7.49178 6.70738 7.90562 6.70362 8.33824C6.69986 8.77087 6.86617 9.18766 7.16673 9.49885L8.33328 10.6654ZM8.25078 16.4998C8.25078 16.9374 8.07694 17.3571 7.76751 17.6665C7.45807 17.976 7.03839 18.1498 6.60078 18.1498H4.95078C4.51317 18.1498 4.09349 17.976 3.78405 17.6665C3.47462 17.3571 3.30078 16.9374 3.30078 16.4998C3.30078 16.0622 3.47462 15.6425 3.78405 15.3331C4.09349 15.0236 4.51317 14.8498 4.95078 14.8498H6.60078C7.03839 14.8498 7.45807 15.0236 7.76751 15.3331C8.07694 15.6425 8.25078 16.0622 8.25078 16.4998ZM13.2008 26.3998V24.7498H19.8008V26.3998C19.8008 27.275 19.4531 28.1144 18.8342 28.7333C18.2154 29.3521 17.376 29.6998 16.5008 29.6998C15.6256 29.6998 14.7862 29.3521 14.1673 28.7333C13.5485 28.1144 13.2008 27.275 13.2008 26.3998ZM19.8008 23.0998C19.8255 22.5388 20.144 22.0339 20.5878 21.6825C21.6648 20.8331 22.4503 19.6694 22.8354 18.353C23.2204 17.0366 23.1858 15.633 22.7363 14.3372C22.2868 13.0414 21.4448 11.9178 20.3273 11.1226C19.2098 10.3275 17.8723 9.90018 16.5008 9.90018C15.1292 9.90018 13.7918 10.3275 12.6743 11.1226C11.5568 11.9178 10.7148 13.0414 10.2653 14.3372C9.81579 15.633 9.78116 17.0366 10.1662 18.353C10.5512 19.6694 11.3368 20.8331 12.4137 21.6825C12.8592 22.0339 13.176 22.5388 13.1991 23.0998H19.8008Z" fill="#2FB69E"/>
</svg>
