<svg width="30" height="30" viewBox="0 0 30 30" fill="none" xmlns="http://www.w3.org/2000/svg">
<path d="M13.125 15.5531L10.6969 13.125L9.375 14.4469L13.125 18.1969L20.625 10.6969L19.3031 9.375L13.125 15.5531Z" fill="white"/>
<path d="M15 28.125L9.21001 25.0378C7.55925 24.1598 6.17879 22.8488 5.21685 21.2455C4.25491 19.6422 3.74782 17.8072 3.75001 15.9375V3.75C3.75001 3.25272 3.94755 2.77581 4.29918 2.42417C4.65081 2.07254 5.12773 1.875 5.62501 1.875H24.375C24.8723 1.875 25.3492 2.07254 25.7008 2.42417C26.0525 2.77581 26.25 3.25272 26.25 3.75V15.9375C26.2522 17.8072 25.7451 19.6422 24.7832 21.2455C23.8212 22.8488 22.4408 24.1598 20.79 25.0378L15 28.125ZM5.62501 3.75V15.9375C5.62396 17.4672 6.03927 18.9684 6.82639 20.28C7.61352 21.5917 8.74279 22.6644 10.0931 23.3831L15 25.9997L19.9069 23.3841C21.2574 22.6652 22.3867 21.5924 23.1739 20.2806C23.961 18.9687 24.3762 17.4674 24.375 15.9375V3.75H5.62501Z" fill="white"/>
</svg>
