<svg width="30" height="30" viewBox="0 0 30 30" fill="none" xmlns="http://www.w3.org/2000/svg">
<path d="M6.38582 4.99072C4.8002 6.08634 3.82207 8.26446 3.75457 10.2051C3.7479 10.4013 3.74853 10.5972 3.75645 10.7926L3.75457 10.8301L3.75957 10.8763C3.81707 12.0826 4.12957 13.2763 4.62832 14.4438H5.99957L5.9952 14.4351H7.77832V13.8795C7.77832 13.4375 7.95385 13.0136 8.26632 12.701C8.57878 12.3884 9.0026 12.2128 9.44457 12.2126H10.5558C10.9979 12.2126 11.4219 12.3882 11.7345 12.7008C12.0471 13.0134 12.2227 13.4374 12.2227 13.8795V14.4351H14.4446V11.102H16.1114C16.2589 11.1018 16.4002 11.0431 16.5044 10.9388C16.6086 10.8345 16.6671 10.6931 16.6671 10.5457V9.43509C16.6669 9.28767 16.6082 9.14635 16.5039 9.04217C16.3996 8.93798 16.2582 8.87946 16.1108 8.87947H14.4446V7.20947L14.4533 7.22009V5.36009C14.3383 5.2557 14.2195 5.15563 14.0971 5.06009C12.0283 3.45197 8.9477 3.21759 6.38582 4.99072Z" fill="#9D46EC"/>
<path d="M14.4548 25.7786C11.3617 23.1567 7.26859 19.5386 5.15234 15.538H6.58359L6.58797 15.5467H8.89047V13.8798C8.89063 13.7324 8.94931 13.5911 9.05361 13.4869C9.15791 13.3827 9.2993 13.3242 9.44672 13.3242H10.5573C10.7048 13.3244 10.8461 13.3831 10.9503 13.4874C11.0545 13.5917 11.113 13.733 11.113 13.8805V15.5467H14.4461V17.7686H13.8905C13.4485 17.7688 13.0247 17.9444 12.7122 18.257C12.3997 18.5696 12.2242 18.9935 12.2242 19.4355V20.5467C12.2244 20.9886 12.4 21.4123 12.7124 21.7248C13.0249 22.0372 13.4486 22.2128 13.8905 22.213H14.4467V24.128L14.4548 24.1355V25.7786Z" fill="#9D46EC"/>
<path d="M15.5458 25.7856V24.1493L15.5545 24.1418V21.1025H13.8877C13.7402 21.1023 13.5989 21.0436 13.4947 20.9393C13.3905 20.835 13.332 20.6936 13.332 20.5462V19.4356C13.3322 19.2882 13.3909 19.1468 13.4952 19.0427C13.5995 18.9385 13.7409 18.88 13.8883 18.88H15.5545V15.5468H17.777V16.1025C17.7772 16.5443 17.9528 16.968 18.2652 17.2805C18.5777 17.5929 19.0014 17.7685 19.4433 17.7687H20.5545C20.9965 17.7687 21.4204 17.5932 21.733 17.2807C22.0456 16.9683 22.2212 16.5444 22.2214 16.1025V15.5462H23.4227L23.4277 15.5381H24.8564C22.7452 19.5468 18.6502 23.1868 15.5458 25.7856Z" fill="#9D46EC"/>
<path d="M25.3781 14.4442H24.0075L24.0119 14.4354H21.1106V16.1023C21.1106 16.4086 20.8619 16.6573 20.555 16.6573H19.4438C19.2965 16.6571 19.1554 16.5986 19.0513 16.4946C18.9471 16.3906 18.8885 16.2495 18.8881 16.1023V14.4354H15.5556V12.2129H16.1112C16.5532 12.2129 16.9771 12.0374 17.2897 11.7249C17.6023 11.4125 17.778 10.9887 17.7781 10.5467V9.43543C17.7781 8.99335 17.6025 8.56937 17.2899 8.25677C16.9773 7.94417 16.5533 7.76856 16.1112 7.76856H15.5556V7.20918L15.5469 7.21918V5.36043C15.6615 5.25627 15.7798 5.15626 15.9019 5.06043C17.9706 3.45043 21.0519 3.20856 23.6138 4.99168C25.1994 6.08731 26.1775 8.26543 26.245 10.2061C26.2517 10.4069 26.2515 10.6079 26.2444 10.8092V10.8311C26.2444 10.8406 26.2435 10.85 26.2419 10.8592C26.19 12.0692 25.8781 13.2698 25.3787 14.4448" fill="#9D46EC"/>
</svg>
