<svg width="30" height="30" viewBox="0 0 30 30" fill="none" xmlns="http://www.w3.org/2000/svg">
<path d="M15 27.5C13.2708 27.5 11.6458 27.1717 10.125 26.515C8.60417 25.8583 7.28125 24.9679 6.15625 23.8438C5.03125 22.7196 4.14084 21.3967 3.485 19.875C2.82917 18.3533 2.50083 16.7283 2.5 15C2.49917 13.2717 2.8275 11.6467 3.485 10.125C4.1425 8.60333 5.03292 7.28042 6.15625 6.15625C7.27958 5.03208 8.6025 4.14167 10.125 3.485C11.6475 2.82833 13.2725 2.5 15 2.5C16.7275 2.5 18.3525 2.82833 19.875 3.485C21.3975 4.14167 22.7204 5.03208 23.8438 6.15625C24.9671 7.28042 25.8579 8.60333 26.5163 10.125C27.1746 11.6467 27.5025 13.2717 27.5 15C27.4975 16.7283 27.1692 18.3533 26.515 19.875C25.8608 21.3967 24.9704 22.7196 23.8438 23.8438C22.7171 24.9679 21.3942 25.8587 19.875 26.5162C18.3558 27.1737 16.7308 27.5017 15 27.5ZM11.375 24.3125L12.875 20.875C12 20.5625 11.245 20.0783 10.61 19.4225C9.975 18.7667 9.48 18.0008 9.125 17.125L5.6875 18.5625C6.16667 19.8958 6.90625 21.0625 7.90625 22.0625C8.90625 23.0625 10.0625 23.8125 11.375 24.3125ZM9.125 12.875C9.47917 12 9.97417 11.2346 10.61 10.5788C11.2458 9.92292 12.0008 9.43833 12.875 9.125L11.4375 5.6875C10.1042 6.1875 8.9375 6.9375 7.9375 7.9375C6.9375 8.9375 6.1875 10.1042 5.6875 11.4375L9.125 12.875ZM15 18.75C16.0417 18.75 16.9271 18.3854 17.6563 17.6562C18.3854 16.9271 18.75 16.0417 18.75 15C18.75 13.9583 18.3854 13.0729 17.6563 12.3438C16.9271 11.6146 16.0417 11.25 15 11.25C13.9583 11.25 13.0729 11.6146 12.3438 12.3438C11.6146 13.0729 11.25 13.9583 11.25 15C11.25 16.0417 11.6146 16.9271 12.3438 17.6562C13.0729 18.3854 13.9583 18.75 15 18.75ZM18.625 24.3125C19.9375 23.8125 21.0888 23.0679 22.0788 22.0788C23.0688 21.0896 23.8133 19.9383 24.3125 18.625L20.875 17.125C20.5625 18 20.0833 18.7554 19.4375 19.3912C18.7917 20.0271 18.0417 20.5217 17.1875 20.875L18.625 24.3125ZM20.875 12.8125L24.3125 11.375C23.8125 10.0625 23.0679 8.91167 22.0788 7.9225C21.0896 6.93333 19.9383 6.18833 18.625 5.6875L17.1875 9.1875C18.0417 9.5 18.7812 9.97417 19.4062 10.61C20.0312 11.2458 20.5208 11.98 20.875 12.8125Z" fill="#EA580C"/>
</svg>
