<svg width="30" height="30" viewBox="0 0 30 30" fill="none" xmlns="http://www.w3.org/2000/svg">
<path d="M15.0625 20L19.4375 15.625C19.7917 15.2708 20.0208 14.8388 20.125 14.3288C20.2292 13.8188 20.1771 13.3237 19.9688 12.8438C19.7604 12.3637 19.4479 11.9783 19.0312 11.6875C18.6146 11.3967 18.1458 11.2508 17.625 11.25C17.1042 11.2492 16.6354 11.4108 16.2188 11.735C15.8021 12.0592 15.4167 12.3975 15.0625 12.75C14.6875 12.3958 14.2971 12.0575 13.8913 11.735C13.4854 11.4125 13.0217 11.2508 12.5 11.25C11.9783 11.2492 11.5046 11.39 11.0788 11.6725C10.6529 11.955 10.335 12.335 10.125 12.8125C9.915 13.29 9.86833 13.785 9.985 14.2975C10.1017 14.81 10.3358 15.2525 10.6875 15.625L15.0625 20ZM11.5625 27.5L11.0625 23.5C10.7917 23.3958 10.5367 23.2708 10.2975 23.125C10.0583 22.9792 9.82375 22.8229 9.59375 22.6562L5.875 24.2188L2.4375 18.2812L5.65625 15.8438C5.63542 15.6979 5.625 15.5575 5.625 15.4225V14.5788C5.625 14.4429 5.63542 14.3021 5.65625 14.1562L2.4375 11.7188L5.875 5.78125L9.59375 7.34375C9.82292 7.17708 10.0625 7.02083 10.3125 6.875C10.5625 6.72917 10.8125 6.60417 11.0625 6.5L11.5625 2.5H18.4375L18.9375 6.5C19.2083 6.60417 19.4637 6.72917 19.7038 6.875C19.9438 7.02083 20.1779 7.17708 20.4063 7.34375L24.125 5.78125L27.5625 11.7188L24.3438 14.1562C24.3646 14.3021 24.375 14.4429 24.375 14.5788V15.4212C24.375 15.5571 24.3542 15.6979 24.3125 15.8438L27.5312 18.2812L24.0937 24.2188L20.4063 22.6562C20.1771 22.8229 19.9375 22.9792 19.6875 23.125C19.4375 23.2708 19.1875 23.3958 18.9375 23.5L18.4375 27.5H11.5625Z" fill="#34C9B0"/>
</svg>
