<svg width="86" height="86" viewBox="0 0 86 86" fill="none" xmlns="http://www.w3.org/2000/svg">
<circle cx="43" cy="43" r="43" fill="#D5F8F2"/>
<path d="M48.6885 28.793C47.2443 27.2337 45.227 26.375 43.0004 26.375C40.762 26.375 38.738 27.2285 37.3004 28.7782C35.8472 30.345 35.1392 32.4743 35.3054 34.7736C35.635 39.3098 39.0869 43 43.0004 43C46.914 43 50.36 39.3106 50.6947 34.7751C50.8632 32.4966 50.1507 30.3717 48.6885 28.793ZM56.0629 59.625H29.9379C29.596 59.6294 29.2573 59.5576 28.9466 59.4147C28.6359 59.2718 28.361 59.0615 28.1418 58.7989C27.6594 58.2223 27.465 57.4348 27.6089 56.6384C28.2353 53.1635 30.1903 50.2445 33.2629 48.1953C35.9927 46.3762 39.4505 45.375 43.0004 45.375C46.5503 45.375 50.0082 46.377 52.7379 48.1953C55.8106 50.2438 57.7655 53.1628 58.3919 56.6377C58.5359 57.4341 58.3414 58.2215 57.859 58.7982C57.6399 59.0609 57.365 59.2714 57.0543 59.4144C56.7436 59.5574 56.4049 59.6294 56.0629 59.625Z" fill="#2DA993"/>
</svg>
