<svg width="30" height="30" viewBox="0 0 30 30" fill="none" xmlns="http://www.w3.org/2000/svg">
<path d="M13.75 21.25H8.75C7.02083 21.25 5.54708 20.6404 4.32875 19.4212C3.11042 18.2021 2.50083 16.7283 2.5 15C2.49917 13.2717 3.10875 11.7979 4.32875 10.5788C5.54875 9.35958 7.0225 8.75 8.75 8.75H13.75V11.25H8.75C7.70833 11.25 6.82292 11.6146 6.09375 12.3438C5.36458 13.0729 5 13.9583 5 15C5 16.0417 5.36458 16.9271 6.09375 17.6562C6.82292 18.3854 7.70833 18.75 8.75 18.75H13.75V21.25ZM10 16.25V13.75H20V16.25H10ZM16.25 21.25V18.75H21.25C22.2917 18.75 23.1771 18.3854 23.9062 17.6562C24.6354 16.9271 25 16.0417 25 15C25 13.9583 24.6354 13.0729 23.9062 12.3438C23.1771 11.6146 22.2917 11.25 21.25 11.25H16.25V8.75H21.25C22.9792 8.75 24.4533 9.35958 25.6725 10.5788C26.8917 11.7979 27.5008 13.2717 27.5 15C27.4992 16.7283 26.8896 18.2025 25.6713 19.4225C24.4529 20.6425 22.9792 21.2517 21.25 21.25H16.25Z" fill="#65A30D"/>
</svg>
