<svg width="60" height="60" viewBox="0 0 60 60" fill="none" xmlns="http://www.w3.org/2000/svg">
<circle cx="30" cy="30" r="30" fill="#CDF0EA"/>
<path fill-rule="evenodd" clip-rule="evenodd" d="M37.5 43.5C35.9087 43.5 34.3826 42.8679 33.2574 41.7426C32.1321 40.6174 31.5 39.0913 31.5 37.5C31.5 35.9087 32.1321 34.3826 33.2574 33.2574C34.3826 32.1321 35.9087 31.5 37.5 31.5C39.0913 31.5 40.6174 32.1321 41.7426 33.2574C42.8679 34.3826 43.5 35.9087 43.5 37.5C43.5 39.0913 42.8679 40.6174 41.7426 41.7426C40.6174 42.8679 39.0913 43.5 37.5 43.5ZM36.7613 40.7115C36.5676 40.6668 36.3995 40.5471 36.2941 40.3787C36.1886 40.2102 36.1543 40.0067 36.1988 39.813L37.3387 34.851C37.3833 34.6571 37.5031 34.4888 37.6717 34.3831C37.8404 34.2775 38.0441 34.2432 38.238 34.2878C38.4319 34.3323 38.6002 34.4521 38.7059 34.6207C38.8115 34.7894 38.8458 34.9931 38.8012 35.187L37.6605 40.149C37.6384 40.245 37.5976 40.3357 37.5404 40.4159C37.4833 40.4961 37.4109 40.5643 37.3274 40.6165C37.2439 40.6687 37.1509 40.704 37.0538 40.7203C36.9566 40.7366 36.8572 40.7336 36.7613 40.7115Z" fill="#34C9B0"/>
<path d="M41.0663 24.5833C42.2153 24.098 42.3308 22.4735 41.2635 21.8218L32.9138 16.7188C31.9508 16.13 30.7208 16.7878 30.639 17.936L30.0045 26.8355C29.922 27.983 31.0455 28.8185 32.082 28.3805L41.0663 24.5833Z" fill="#34C9B0"/>
<path fill-rule="evenodd" clip-rule="evenodd" d="M20.7301 38.5385C21.2344 39.6202 22.1478 40.4572 23.2693 40.8655C24.3908 41.2737 25.6285 41.2197 26.7102 40.7154C27.7919 40.211 28.6289 39.2976 29.0371 38.1762C29.4454 37.0547 29.3914 35.8169 28.8871 34.7352L25.0846 26.5782C24.5802 25.4965 23.6668 24.6593 22.5452 24.251C21.4237 23.8427 20.1858 23.8967 19.1041 24.401C18.0223 24.9053 17.1851 25.8188 16.7768 26.9403C16.3685 28.0619 16.4225 29.2997 16.9268 30.3815L20.7301 38.5385ZM20.4826 34.457L22.0898 37.9047C22.431 38.6178 23.0399 39.1674 23.784 39.434C24.5282 39.7006 25.3475 39.6628 26.0639 39.3287C26.7803 38.9946 27.3359 38.3913 27.6099 37.6498C27.8839 36.9083 27.8542 36.0887 27.5273 35.369L25.9201 31.9212L20.4826 34.457Z" fill="#34C9B0"/>
</svg>
