<svg width="24" height="24" viewBox="0 0 24 24" fill="none" xmlns="http://www.w3.org/2000/svg">
<path d="M4 4.5C4 3.83696 4.26339 3.20107 4.73223 2.73223C5.20107 2.26339 5.83696 2 6.5 2H18C18.3283 2 18.6534 2.06466 18.9567 2.1903C19.26 2.31594 19.5356 2.50009 19.7678 2.73223C19.9999 2.96438 20.1841 3.23998 20.3097 3.54329C20.4353 3.84661 20.5 4.1717 20.5 4.5V18.75C20.5 18.9489 20.421 19.1397 20.2803 19.2803C20.1397 19.421 19.9489 19.5 19.75 19.5H5.5C5.5 19.7652 5.60536 20.0196 5.79289 20.2071C5.98043 20.3946 6.23478 20.5 6.5 20.5H19.75C19.9489 20.5 20.1397 20.579 20.2803 20.7197C20.421 20.8603 20.5 21.0511 20.5 21.25C20.5 21.4489 20.421 21.6397 20.2803 21.7803C20.1397 21.921 19.9489 22 19.75 22H6.5C5.83696 22 5.20107 21.7366 4.73223 21.2678C4.26339 20.7989 4 20.163 4 19.5V4.5ZM12.25 8C12.5152 8 12.7696 7.89464 12.9571 7.70711C13.1446 7.51957 13.25 7.26522 13.25 7C13.25 6.73478 13.1446 6.48043 12.9571 6.29289C12.7696 6.10536 12.5152 6 12.25 6C11.9848 6 11.7304 6.10536 11.5429 6.29289C11.3554 6.48043 11.25 6.73478 11.25 7C11.25 7.26522 11.3554 7.51957 11.5429 7.70711C11.7304 7.89464 11.9848 8 12.25 8ZM11.5 9.75V14.75C11.5 14.9489 11.579 15.1397 11.7197 15.2803C11.8603 15.421 12.0511 15.5 12.25 15.5C12.4489 15.5 12.6397 15.421 12.7803 15.2803C12.921 15.1397 13 14.9489 13 14.75V9.75C13 9.55109 12.921 9.36032 12.7803 9.21967C12.6397 9.07902 12.4489 9 12.25 9C12.0511 9 11.8603 9.07902 11.7197 9.21967C11.579 9.36032 11.5 9.55109 11.5 9.75Z" fill="#0284C7"/>
</svg>
