<svg width="30" height="30" viewBox="0 0 30 30" fill="none" xmlns="http://www.w3.org/2000/svg">
<path d="M5.00188 9.99996L4.11813 10.8837L3.23438 9.99996L4.11813 9.11621L5.00188 9.99996ZM11.2519 25C10.9204 25 10.6024 24.8683 10.368 24.6338C10.1336 24.3994 10.0019 24.0815 10.0019 23.75C10.0019 23.4184 10.1336 23.1005 10.368 22.8661C10.6024 22.6317 10.9204 22.5 11.2519 22.5V25ZM10.3681 17.1337L4.11813 10.8837L5.88562 9.11621L12.1356 15.3662L10.3681 17.1337ZM4.11813 9.11621L10.3681 2.86621L12.1356 4.63371L5.88562 10.8837L4.11813 9.11621ZM5.00188 8.74996H18.1269V11.25H5.00188V8.74996ZM18.1269 25H11.2519V22.5H18.1269V25ZM26.2519 16.875C26.2519 19.0298 25.3958 21.0965 23.8721 22.6202C22.3484 24.1439 20.2818 25 18.1269 25V22.5C18.8656 22.5 19.597 22.3545 20.2795 22.0718C20.9619 21.7891 21.582 21.3748 22.1043 20.8524C22.6267 20.3301 23.041 19.71 23.3237 19.0276C23.6064 18.3451 23.7519 17.6136 23.7519 16.875H26.2519ZM18.1269 8.74996C20.2818 8.74996 22.3484 9.60598 23.8721 11.1297C25.3958 12.6535 26.2519 14.7201 26.2519 16.875H23.7519C23.7519 16.1363 23.6064 15.4048 23.3237 14.7224C23.041 14.0399 22.6267 13.4198 22.1043 12.8975C21.582 12.3752 20.9619 11.9608 20.2795 11.6781C19.597 11.3955 18.8656 11.25 18.1269 11.25V8.74996Z" fill="white"/>
</svg>
