<svg width="86" height="86" viewBox="0 0 86 86" fill="none" xmlns="http://www.w3.org/2000/svg">
<circle cx="43" cy="43" r="43" fill="#D5F8F2"/>
<path fill-rule="evenodd" clip-rule="evenodd" d="M50.9167 57.2497C49.237 57.2497 47.6261 56.5824 46.4383 55.3947C45.2506 54.207 44.5833 52.596 44.5833 50.9163C44.5833 49.2366 45.2506 47.6257 46.4383 46.438C47.6261 45.2503 49.237 44.583 50.9167 44.583C52.5964 44.583 54.2073 45.2503 55.395 46.438C56.5827 47.6257 57.25 49.2366 57.25 50.9163C57.25 52.596 56.5827 54.207 55.395 55.3947C54.2073 56.5824 52.5964 57.2497 50.9167 57.2497ZM50.1369 54.3063C49.9324 54.2591 49.7551 54.1328 49.6437 53.9549C49.5324 53.7771 49.4962 53.5623 49.5431 53.3578L50.7465 48.1202C50.7935 47.9155 50.9199 47.7378 51.0979 47.6263C51.2759 47.5148 51.491 47.4786 51.6957 47.5256C51.9004 47.5727 52.078 47.6991 52.1895 47.8771C52.301 48.0551 52.3372 48.2701 52.2902 48.4748L51.0861 53.7125C51.0627 53.8138 51.0197 53.9095 50.9593 53.9942C50.899 54.0789 50.8226 54.1508 50.7345 54.206C50.6463 54.2611 50.5482 54.2983 50.4456 54.3156C50.3431 54.3328 50.2382 54.3296 50.1369 54.3063Z" fill="#2DA993"/>
<path d="M54.6813 37.2824C55.8941 36.7702 56.016 35.0555 54.8895 34.3675L46.0758 28.981C45.0593 28.3595 43.761 29.0538 43.6747 30.2659L43.005 39.6598C42.9179 40.871 44.1038 41.753 45.1979 41.2906L54.6813 37.2824Z" fill="#2DA993"/>
<path fill-rule="evenodd" clip-rule="evenodd" d="M33.2154 52.0133C33.7477 53.1551 34.7119 54.0387 35.8957 54.4696C37.0795 54.9005 38.386 54.8435 39.5277 54.3112C40.6695 53.7788 41.5531 52.8147 41.984 51.6309C42.4149 50.4471 42.3579 49.1406 41.8255 47.9988L37.8118 39.3886C37.2794 38.2468 36.3153 37.3631 35.1314 36.9321C33.9475 36.5011 32.6409 36.5581 31.499 37.0904C30.3572 37.6228 29.4735 38.587 29.0425 39.7708C28.6115 40.9547 28.6685 42.2613 29.2008 43.4032L33.2154 52.0133ZM32.9541 47.7051L34.6507 51.3444C35.0108 52.097 35.6535 52.6771 36.439 52.9586C37.2245 53.24 38.0893 53.2001 38.8455 52.8474C39.6017 52.4948 40.1882 51.8579 40.4774 51.0753C40.7667 50.2926 40.7354 49.4274 40.3903 48.6678L38.6937 45.0285L32.9541 47.7051Z" fill="#2DA993"/>
</svg>
