<svg width="43" height="43" viewBox="0 0 43 43" fill="none" xmlns="http://www.w3.org/2000/svg">
<path d="M15.2292 9.37061C15.2292 8.30145 15.6539 7.27609 16.4099 6.52008C17.1659 5.76408 18.1913 5.33936 19.2604 5.33936H23.7396C24.8087 5.33936 25.8341 5.76408 26.5901 6.52008C27.3461 7.27609 27.7708 8.30145 27.7708 9.37061V12.5419H33.5938C34.6629 12.5419 35.6883 12.9666 36.4443 13.7226C37.2003 14.4786 37.625 15.504 37.625 16.5731V36.2814C37.625 36.6378 37.4834 36.9796 37.2314 37.2316C36.9794 37.4836 36.6376 37.6252 36.2812 37.6252H6.71875C6.36237 37.6252 6.02058 37.4836 5.76858 37.2316C5.51657 36.9796 5.375 36.6378 5.375 36.2814V21.9481C5.375 20.879 5.79972 19.8536 6.55573 19.0976C7.31173 18.3416 8.3371 17.9169 9.40625 17.9169H15.2292V9.37061ZM17.9167 34.9377H25.0833V9.37061C25.0833 9.01422 24.9418 8.67243 24.6898 8.42043C24.4378 8.16843 24.096 8.02686 23.7396 8.02686H19.2604C18.904 8.02686 18.5622 8.16843 18.3102 8.42043C18.0582 8.67243 17.9167 9.01422 17.9167 9.37061V34.9377ZM15.2292 20.6044H9.40625C9.04987 20.6044 8.70808 20.7459 8.45607 20.9979C8.20407 21.2499 8.0625 21.5917 8.0625 21.9481V34.9377H15.2292V20.6044ZM27.7708 34.9377H34.9375V16.5731C34.9375 16.2167 34.7959 15.8749 34.5439 15.6229C34.2919 15.3709 33.9501 15.2294 33.5938 15.2294H27.7708V34.9377Z" fill="#2FB69E"/>
</svg>
